<svg xmlns="http://www.w3.org/2000/svg" width="1430.412" height="446.203" viewBox="0 0 1430.412 446.203">
  <path id="Path_1" data-name="Path 1" d="M23.129,0V-446.2H214.562V-378.6H90.379V-256.9h90.735V-189.3H90.379V-67.607H214.562V0ZM328.07,0H260.819V-446.2h96.506L420-125.673,480.162-446.2h92.714V0H505.626V-280.389L447.276,0H393.191L328.07-279.678Zm397.1-445.847q49.1,0,78.281,30.957,27.043,29.533,27.043,75.435v64.76q0,44.122-30.779,75.435t-74.545,31.313H686.384V0H619.134V-445.847Zm40.208,107.459q0-17.435-10.5-28.11t-27.932-10.675H686.384v142.685h40.564a36.769,36.769,0,0,0,27.221-11.386,37.651,37.651,0,0,0,11.208-27.4ZM944,0H876.75V-445.847H944Zm152.293-445.847q56.22,0,82.551,30.957,23.129,27.043,23.129,75.435v64.76q0,47.325-35.938,80.06L1215.845,0h-72.727l-40.775-167.949h-44.834V0H990.258V-445.847ZM1136.5-338.389q0-38.785-38.429-38.785h-40.564v142.685h40.564a36.769,36.769,0,0,0,27.22-11.386,37.651,37.651,0,0,0,11.208-27.4ZM1262.107,0V-446.2h191.433V-378.6H1329.358V-256.9h90.735V-189.3h-90.735V-67.607h124.182V0Z" transform="translate(-23.129 446.203)" fill="#fff4de"/>
</svg>
