<svg xmlns="http://www.w3.org/2000/svg" width="1669.773" height="291.818" viewBox="0 0 1669.773 291.818">
  <path id="Path_2" data-name="Path 2" d="M60.455-241.591H14.773v-43.182H148.864v43.182H103.409V0H60.455ZM178.409,0V-285H300.682v43.182H221.364v77.727h57.955v43.182H221.364v77.727h79.318V0ZM472.273-70.909Q472.727-41.136,456.818-20,446.364-5.682,427.273.227a80.55,80.55,0,0,1-23.864,3.182q-25.227,0-41.818-12.5-13.864-10.227-21.932-27.841t-9.432-40.341l40.909-2.955q2.727,24.9,13.182,36.094,7.727,8.452,17.727,8,14.091-.455,22.5-13.878,4.318-6.594,4.318-18.878,0-17.745-16.136-35.259L374.545-140.32q-21.364-20.7-30.227-37.081a85.746,85.746,0,0,1-9.545-40.036q0-38.9,26.136-58.917,16.136-12.056,40-12.056,22.955,0,39.318,10.227A59.081,59.081,0,0,1,460.8-255.909q7.841,14.318,9.432,32.955l-41.136,7.5q-1.818-17.5-10-27.273-5.909-7.045-17.045-7.045-11.818,0-17.955,10.455-5,8.409-5,20.909,0,19.545,16.818,39.773,6.364,7.727,19.091,18.182,15,12.5,19.773,17.5,15.909,15.909,24.545,31.364a120.2,120.2,0,0,1,6.591,13.409Q472.045-82.955,472.273-70.909ZM547.5-241.591H501.818v-43.182H635.909v43.182H590.455V0H547.5ZM708.409,0H665.455V-284.773h42.955Zm72.5,0H737.955V-285H799.6L839.627-80.27,878.054-285h59.219V0H894.318V-179.091L857.049,0H822.5L780.909-178.636Zm253.864-288.409q28.409,0,48.3,20t19.886,48.182V-64.773q0,28.409-20,48.3T1034.773,3.409q-28.409,0-48.182-20T966.818-64.773V-220.227q0-28.409,20-48.3T1034.773-288.409Zm23.409,67.273a23.67,23.67,0,0,0-7.159-17.386,23.671,23.671,0,0,0-17.386-7.159,24.049,24.049,0,0,0-17.5,7.159,23.485,23.485,0,0,0-7.273,17.386V-65.227a23.485,23.485,0,0,0,7.273,17.386,24.048,24.048,0,0,0,17.5,7.159,23.671,23.671,0,0,0,17.386-7.159,23.67,23.67,0,0,0,7.159-17.386ZM1180.724-285l57,191.538V-285h42.955V0h-46.136l-59.091-182.5V0H1132.5V-285ZM1353.182,0h-42.955V-284.773h42.955Zm84.709-65.455L1427.454,0h-44.727l48.413-284.773h59.087L1537.951,0h-45.163l-10.05-65.455Zm22.564-154.091-15.909,112.273h31.818ZM1684.546,0H1567.5V-284.773h42.955V-42.727h74.091Z" transform="translate(-14.773 288.409)" fill="#fff4de"/>
</svg>
