<svg xmlns="http://www.w3.org/2000/svg" viewBox="0 0 1893.58 960.88"><defs><style>.cls-1{isolation:isolate;}.cls-2{mix-blend-mode:multiply;}.cls-3{fill:#680000;}.cls-4,.cls-5,.cls-7,.cls-8{fill:none;stroke-miterlimit:1;}.cls-4,.cls-7{stroke:#680000;}.cls-4,.cls-5{stroke-width:144.1px;}.cls-5,.cls-8{stroke:#fff4de;}.cls-6{fill:#f94b1b;}.cls-7,.cls-8{stroke-width:63.41px;}</style></defs><title>colored typography</title><g class="cls-1"><g id="Layer_2" data-name="Layer 2"><g id="Layer_1-2" data-name="Layer 1"><g class="cls-2"><path class="cls-3" d="M293.21,843.58c-65.85,27-147.2,29.66-181.39-44.69-39.45-85.81,7.67-192.44,82.12-242.12-35.17-2.08-76.52-12.73-91.81-48.42-33.3-77.75,59.32-148.42,119.45-174.43l4.61-1.88c47.58-17.15,117.4-26.14,139.85,32.44,16.24,42.4-2,101-46.08,118.73-22.5,9-44.87,4.87-66.93-3.18-.94-1.44-1.41-2.16-2.36-3.59.48-1,.7-2.58,2.2-3.2,27.27-23.52,43-70.95,29.66-105.47-6.65-17.17-25.36-25-42.77-20L232.58,350c-50,19.34-64.26,98.82-45.77,142.51,11.45,27.06,38.59,41.16,68,36.34,2.5-.28,4.05,1.37,5.13,4,.33.78.49,1.17.81,2,.61,3.56.47,7.43-1.76,8.35-80.53,39-94,165.19-62.1,238.94,13.38,30.9,42.28,55.42,76.93,40l.7-.31c29.55-13.54,40.27-54.29,45.24-83.13,6.41-37.2,5.77-79.24-8.18-114.44-3.4-8.57-8.95-18.11-15.42-24.86l-.81-1.95a3.52,3.52,0,0,1,.4-3.21c.47-1,2.68-1.87,3.41-2.17,37-6.23,74.52,5.94,89.21,42.79,5.51,13.81,7.22,27.65,7.69,42.42-.92,63-33.73,135.41-93.69,162.43Z"/><path class="cls-3" d="M480.64,766.31c-24.65,5.23-40-19.19-47.64-38.68a208.63,208.63,0,0,1-11.49-39.38c-14.15-64.09-18.06-134.69-12.13-200.15,1.55-18,23.14-29.69,37.58-34.7,12.91-4.48,41.12-15.38,53.44-4.16,0,.9,0,1.36,0,2.26a1097.59,1097.59,0,0,0-8.71,206.33c6.6-48.91,14.37-97.94,29.49-145.06,14-43.58,36.51-99.56,83.37-116.53l.76-.26c22.33-8.28,41.1,2.3,48.31,24.31C658.41,435,659,450,658.88,465.35c-1.72,45.71-6.65,91.27-11.63,136.72,6.37-48.08,16.29-96.17,31.6-142.22,13.11-39.46,34.49-101.33,79.07-115.53l.77-.24c23.68-6.95,44.63-.51,52.25,24.1,11.74,37.95,2.74,83.66-1.79,122.26C805.1,525,794.84,568,805.36,602c3.54,11.4,13,17.66,24.64,13.48,33.4-12,45.89-68.63,49.61-100.51a4,4,0,0,1,2.9-3.84c2.24-.69,4.89,0,5.72,2.66.16.54.25.81.41,1.35-2,46.5-15.62,113.34-67.14,129l-2.19.71c-35.63,9.5-75.25,10.48-88.92-30.53-12.17-36.51-4.75-79.06,1.88-115.9,4.61-25.59,19.46-60.94,13.37-85-.32-1.28-.87-2.68-2.6-2.86l-2.5.08c-14.63,6.64-21.51,30.19-26.73,43.76-10.53,27.4-18.35,55.87-25.55,84.29-12.17,48.06-22.74,97-29.78,146.08-1.55,14-6.87,17.39-9.73,18.43C618,714.38,591,700.46,581,670.13a204.26,204.26,0,0,1-8-35.3c-3.27-30.58,2.47-62.44,6.61-92.67,3.1-22.58,12.42-53,6-74.31-.59-1.93-1.7-2.39-3.44-2.51l-1.5.53c-14.66,7.74-20.69,31-25.63,45.42-9.28,27.06-16,55.06-22,83C522,644.36,513.36,695.16,507.38,746.07c-.21,1.59-.83,6.36-4.16,8.41-5.68,4.47-10.89,8-15.89,10Z"/><path class="cls-3" d="M827.17,763.73A78.07,78.07,0,0,1,823,739.15c-.91-42.08,46.94-82.13,56-98.7,12.5-22.77-1.1-111.19,0-166.48.94-49.42-1.5-101.9,5.75-149.63,2.77-18.18,29.21-27.06,44.45-31.38,11.62-3.28,38.29-10.88,47.78.3-1.75,10.43-2.61,15.65-4.32,26.08,13.17-25.4,34.47-48.33,62.83-56.08l5.44-1.46c41.83-9.22,67.14,28,76.4,63.54,20.9,80.17-2.83,220.84-95.22,247.82-23,6.71-51.25,4.11-66.6-16.49q-3.15,81.27-5.08,162.58c-.54,34.55-16.84,70.42-51.29,81.74C869.44,810.75,836.63,793.7,827.17,763.73Zm51.37-34.49c-.24-23.17.12-46.33.19-69.5-26.35,16.69-39.17,46.5-39.06,76.9a72,72,0,0,0,3.06,19c3.07,9.36,8.77,17.12,18.26,14.77l1.43-.47C876.51,764.41,878.58,742,878.54,729.24Zm166.4-406.54c-2-8.32-6.72-22.43-17.64-22.19l-7.15,1.22c-34,9.83-50.35,60-55.55,90.93q-2.43,35.83-4.65,71.7c-1.91,18.84-1.59,39.29,3.86,57.56,3.87,12.94,13.74,28.46,29.55,26.57l5.39-.83c33.1-10.87,41.46-66.54,46.19-95.31C1051.78,410.79,1055,363.5,1044.94,322.7Z"/><path class="cls-3" d="M1229.85,527c-42.59,11-67.75-19.33-77.49-57.28-18.16-70.76-6.43-150.53,7.29-221.23,5.21-16.83,26.18-24.29,41.3-27.52,13.08-2.8,42.53-10.36,52.75,2.68l-.3,2.24c-12.1,36.08-18.69,74.71-24.58,112.19-6.81,43.42-14.72,92.73-5,136,2,8.7,6.45,20.31,16.57,22,2.58.81,5.61.1,7.82-.47,31.58-8.13,43.26-67.36,49.27-94.26a4.36,4.36,0,0,1,3.33-2.94c3.8-.88,5.2,1.69,5.51,3.06l.32,1.37c-5.69,46.3-19.46,106.54-70.12,122.47Zm-49.56-360.43c-5.92-27.23,14.53-59.86,42.26-65.77,19.82-4.23,38.65,4,43.45,24.66,6.34,27.22-16.34,56.8-42,63.23C1206.06,193.15,1184.63,186.5,1180.29,166.56Z"/><path class="cls-3" d="M1347.32,500.41c-27.26,2.59-39.06-25.47-44.21-47.59-17.58-75.49-3.83-164,12.64-239,4.22-17.54,27.31-25.91,42.33-28.71,13.68-2.55,44-9.25,54.4,4.38L1412,191c-21.17,70.91-41.53,140.28-44.74,214.71,13.76-49.22,29-98.28,51.23-144.42,20.71-43,51.5-96.91,101.52-109.5l4.75-.89c27-4.86,53.23,6,57.92,35.21,8.82,55-34,139.27-92.72,150l-3.84.76a4.09,4.09,0,0,1-4.67-3.38l1-3.06c21.55-29.31,36.13-88.34,30-123.48-1.07-6.14-3.56-10.07-7.62-10l-3.15.6c-20.27,4.75-33.69,30-43,46.46-15.59,27.56-27.58,57.19-38.5,86.86-18.58,50.47-36.1,103.54-45,156.75-4.92,7.45-16.7,10.09-24.82,12.08Z"/><path class="cls-3" d="M1588.09,345.41C1574.49,268.25,1611.73,135.48,1703,121l.8-.13c33.7-6.08,68.88,9.42,74.41,45.65,3,19.6-2.67,38.93-10.08,57-15,32.66-48.1,56.23-83,62.21-10,1.72-19,1-23.44-1.8-4.45,24.46-7.1,48.74-3.53,72.72,3.89,26.09,21.33,50.46,51.33,48.5a85,85,0,0,0,13.06-1.41c49-7.91,75.21-56.05,90.21-98.56a4,4,0,0,1,3.47-3.34c2.33-.33,5.63.62,6,3.4l-.58,1.51c-14.74,63-47.28,110.78-114.61,121.63C1646.87,438,1598.78,406,1588.09,345.41Zm159.66-160.86c-1.2-9.46-8.26-18.19-18.69-16.37l-.79.13c-33.8,7.4-51.67,56.71-59.68,85.16a102.65,102.65,0,0,0,19.86-1.14C1719.92,247.26,1752.15,219,1747.75,184.55Z"/><path class="cls-4" d="M293.21,843.58c-65.85,27-147.2,29.66-181.39-44.69-39.45-85.81,7.67-192.44,82.12-242.12-35.17-2.08-76.52-12.73-91.81-48.42-33.3-77.75,59.32-148.42,119.45-174.43l4.61-1.88c47.58-17.15,117.4-26.14,139.85,32.44,16.24,42.4-2,101-46.08,118.73-22.5,9-44.87,4.87-66.93-3.18-.94-1.44-1.41-2.16-2.36-3.59.48-1,.7-2.58,2.2-3.2,27.27-23.52,43-70.95,29.66-105.47-6.65-17.17-25.36-25-42.77-20L232.58,350c-50,19.34-64.26,98.82-45.77,142.51,11.45,27.06,38.59,41.16,68,36.34,2.5-.28,4.05,1.37,5.13,4,.33.78.49,1.17.81,2,.61,3.56.47,7.43-1.76,8.35-80.53,39-94,165.19-62.1,238.94,13.38,30.9,42.28,55.42,76.93,40l.7-.31c29.55-13.54,40.27-54.29,45.24-83.13,6.41-37.2,5.77-79.24-8.18-114.44-3.4-8.57-8.95-18.11-15.42-24.86l-.81-1.95a3.52,3.52,0,0,1,.4-3.21c.47-1,2.68-1.87,3.41-2.17,37-6.23,74.52,5.94,89.21,42.79,5.51,13.81,7.22,27.65,7.69,42.42-.92,63-33.73,135.41-93.69,162.43Z"/><path class="cls-4" d="M480.64,766.31c-24.65,5.23-40-19.19-47.64-38.68a208.63,208.63,0,0,1-11.49-39.38c-14.15-64.09-18.06-134.69-12.13-200.15,1.55-18,23.14-29.69,37.58-34.7,12.91-4.48,41.12-15.38,53.44-4.16,0,.9,0,1.36,0,2.26a1097.59,1097.59,0,0,0-8.71,206.33c6.6-48.91,14.37-97.94,29.49-145.06,14-43.58,36.51-99.56,83.37-116.53l.76-.26c22.33-8.28,41.1,2.3,48.31,24.31C658.41,435,659,450,658.88,465.35c-1.72,45.71-6.65,91.27-11.63,136.72,6.37-48.08,16.29-96.17,31.6-142.22,13.11-39.46,34.49-101.33,79.07-115.53l.77-.24c23.68-6.95,44.63-.51,52.25,24.1,11.74,37.95,2.74,83.66-1.79,122.26C805.1,525,794.84,568,805.36,602c3.54,11.4,13,17.66,24.64,13.48,33.4-12,45.89-68.63,49.61-100.51a4,4,0,0,1,2.9-3.84c2.24-.69,4.89,0,5.72,2.66.16.54.25.81.41,1.35-2,46.5-15.62,113.34-67.14,129l-2.19.71c-35.63,9.5-75.25,10.48-88.92-30.53-12.17-36.51-4.75-79.06,1.88-115.9,4.61-25.59,19.46-60.94,13.37-85-.32-1.28-.87-2.68-2.6-2.86l-2.5.08c-14.63,6.64-21.51,30.19-26.73,43.76-10.53,27.4-18.35,55.87-25.55,84.29-12.17,48.06-22.74,97-29.78,146.08-1.55,14-6.87,17.39-9.73,18.43C618,714.38,591,700.46,581,670.13a204.26,204.26,0,0,1-8-35.3c-3.27-30.58,2.47-62.44,6.61-92.67,3.1-22.58,12.42-53,6-74.31-.59-1.93-1.7-2.39-3.44-2.51l-1.5.53c-14.66,7.74-20.69,31-25.63,45.42-9.28,27.06-16,55.06-22,83C522,644.36,513.36,695.16,507.38,746.07c-.21,1.59-.83,6.36-4.16,8.41-5.68,4.47-10.89,8-15.89,10Z"/><path class="cls-4" d="M827.17,763.73A78.07,78.07,0,0,1,823,739.15c-.91-42.08,46.94-82.13,56-98.7,12.5-22.77-1.1-111.19,0-166.48.94-49.42-1.5-101.9,5.75-149.63,2.77-18.18,29.21-27.06,44.45-31.38,11.62-3.28,38.29-10.88,47.78.3-1.75,10.43-2.61,15.65-4.32,26.08,13.17-25.4,34.47-48.33,62.83-56.08l5.44-1.46c41.83-9.22,67.14,28,76.4,63.54,20.9,80.17-2.83,220.84-95.22,247.82-23,6.71-51.25,4.11-66.6-16.49q-3.15,81.27-5.08,162.58c-.54,34.55-16.84,70.42-51.29,81.74C869.44,810.75,836.63,793.7,827.17,763.73Zm51.37-34.49c-.24-23.17.12-46.33.19-69.5-26.35,16.69-39.17,46.5-39.06,76.9a72,72,0,0,0,3.06,19c3.07,9.36,8.77,17.12,18.26,14.77l1.43-.47C876.51,764.41,878.58,742,878.54,729.24Zm166.4-406.54c-2-8.32-6.72-22.43-17.64-22.19l-7.15,1.22c-34,9.83-50.35,60-55.55,90.93q-2.43,35.83-4.65,71.7c-1.91,18.84-1.59,39.29,3.86,57.56,3.87,12.94,13.74,28.46,29.55,26.57l5.39-.83c33.1-10.87,41.46-66.54,46.19-95.31C1051.78,410.79,1055,363.5,1044.94,322.7Z"/><path class="cls-4" d="M1229.85,527c-42.59,11-67.75-19.33-77.49-57.28-18.16-70.76-6.43-150.53,7.29-221.23,5.21-16.83,26.18-24.29,41.3-27.52,13.08-2.8,42.53-10.36,52.75,2.68l-.3,2.24c-12.1,36.08-18.69,74.71-24.58,112.19-6.81,43.42-14.72,92.73-5,136,2,8.7,6.45,20.31,16.57,22,2.58.81,5.61.1,7.82-.47,31.58-8.13,43.26-67.36,49.27-94.26a4.36,4.36,0,0,1,3.33-2.94c3.8-.88,5.2,1.69,5.51,3.06l.32,1.37c-5.69,46.3-19.46,106.54-70.12,122.47Zm-49.56-360.43c-5.92-27.23,14.53-59.86,42.26-65.77,19.82-4.23,38.65,4,43.45,24.66,6.34,27.22-16.34,56.8-42,63.23C1206.06,193.15,1184.63,186.5,1180.29,166.56Z"/><path class="cls-4" d="M1347.32,500.41c-27.26,2.59-39.06-25.47-44.21-47.59-17.58-75.49-3.83-164,12.64-239,4.22-17.54,27.31-25.91,42.33-28.71,13.68-2.55,44-9.25,54.4,4.38L1412,191c-21.17,70.91-41.53,140.28-44.74,214.71,13.76-49.22,29-98.28,51.23-144.42,20.71-43,51.5-96.91,101.52-109.5l4.75-.89c27-4.86,53.23,6,57.92,35.21,8.82,55-34,139.27-92.72,150l-3.84.76a4.09,4.09,0,0,1-4.67-3.38l1-3.06c21.55-29.31,36.13-88.34,30-123.48-1.07-6.14-3.56-10.07-7.62-10l-3.15.6c-20.27,4.75-33.69,30-43,46.46-15.59,27.56-27.58,57.19-38.5,86.86-18.58,50.47-36.1,103.54-45,156.75-4.92,7.45-16.7,10.09-24.82,12.08Z"/><path class="cls-4" d="M1588.09,345.41C1574.49,268.25,1611.73,135.48,1703,121l.8-.13c33.7-6.08,68.88,9.42,74.41,45.65,3,19.6-2.67,38.93-10.08,57-15,32.66-48.1,56.23-83,62.21-10,1.72-19,1-23.44-1.8-4.45,24.46-7.1,48.74-3.53,72.72,3.89,26.09,21.33,50.46,51.33,48.5a85,85,0,0,0,13.06-1.41c49-7.91,75.21-56.05,90.21-98.56a4,4,0,0,1,3.47-3.34c2.33-.33,5.63.62,6,3.4l-.58,1.51c-14.74,63-47.28,110.78-114.61,121.63C1646.87,438,1598.78,406,1588.09,345.41Zm159.66-160.86c-1.2-9.46-8.26-18.19-18.69-16.37l-.79.13c-33.8,7.4-51.67,56.71-59.68,85.16a102.65,102.65,0,0,0,19.86-1.14C1719.92,247.26,1752.15,219,1747.75,184.55Z"/><path class="cls-3" d="M293.21,843.58c-65.85,27-147.2,29.66-181.39-44.69-39.45-85.81,7.67-192.44,82.12-242.12-35.17-2.08-76.52-12.73-91.81-48.42-33.3-77.75,59.32-148.42,119.45-174.43l4.61-1.88c47.58-17.15,117.4-26.14,139.85,32.44,16.24,42.4-2,101-46.08,118.73-22.5,9-44.87,4.87-66.93-3.18-.94-1.44-1.41-2.16-2.36-3.59.48-1,.7-2.58,2.2-3.2,27.27-23.52,43-70.95,29.66-105.47-6.65-17.17-25.36-25-42.77-20L232.58,350c-50,19.34-64.26,98.82-45.77,142.51,11.45,27.06,38.59,41.16,68,36.34,2.5-.28,4.05,1.37,5.13,4,.33.78.49,1.17.81,2,.61,3.56.47,7.43-1.76,8.35-80.53,39-94,165.19-62.1,238.94,13.38,30.9,42.28,55.42,76.93,40l.7-.31c29.55-13.54,40.27-54.29,45.24-83.13,6.41-37.2,5.77-79.24-8.18-114.44-3.4-8.57-8.95-18.11-15.42-24.86l-.81-1.95a3.52,3.52,0,0,1,.4-3.21c.47-1,2.68-1.87,3.41-2.17,37-6.23,74.52,5.94,89.21,42.79,5.51,13.81,7.22,27.65,7.69,42.42-.92,63-33.73,135.41-93.69,162.43Z"/><path class="cls-3" d="M480.64,766.31c-24.65,5.23-40-19.19-47.64-38.68a208.63,208.63,0,0,1-11.49-39.38c-14.15-64.09-18.06-134.69-12.13-200.15,1.55-18,23.14-29.69,37.58-34.7,12.91-4.48,41.12-15.38,53.44-4.16,0,.9,0,1.36,0,2.26a1097.59,1097.59,0,0,0-8.71,206.33c6.6-48.91,14.37-97.94,29.49-145.06,14-43.58,36.51-99.56,83.37-116.53l.76-.26c22.33-8.28,41.1,2.3,48.31,24.31C658.41,435,659,450,658.88,465.35c-1.72,45.71-6.65,91.27-11.63,136.72,6.37-48.08,16.29-96.17,31.6-142.22,13.11-39.46,34.49-101.33,79.07-115.53l.77-.24c23.68-6.95,44.63-.51,52.25,24.1,11.74,37.95,2.74,83.66-1.79,122.26C805.1,525,794.84,568,805.36,602c3.54,11.4,13,17.66,24.64,13.48,33.4-12,45.89-68.63,49.61-100.51a4,4,0,0,1,2.9-3.84c2.24-.69,4.89,0,5.72,2.66.16.54.25.81.41,1.35-2,46.5-15.62,113.34-67.14,129l-2.19.71c-35.63,9.5-75.25,10.48-88.92-30.53-12.17-36.51-4.75-79.06,1.88-115.9,4.61-25.59,19.46-60.94,13.37-85-.32-1.28-.87-2.68-2.6-2.86l-2.5.08c-14.63,6.64-21.51,30.19-26.73,43.76-10.53,27.4-18.35,55.87-25.55,84.29-12.17,48.06-22.74,97-29.78,146.08-1.55,14-6.87,17.39-9.73,18.43C618,714.38,591,700.46,581,670.13a204.26,204.26,0,0,1-8-35.3c-3.27-30.58,2.47-62.44,6.61-92.67,3.1-22.58,12.42-53,6-74.31-.59-1.93-1.7-2.39-3.44-2.51l-1.5.53c-14.66,7.74-20.69,31-25.63,45.42-9.28,27.06-16,55.06-22,83C522,644.36,513.36,695.16,507.38,746.07c-.21,1.59-.83,6.36-4.16,8.41-5.68,4.47-10.89,8-15.89,10Z"/><path class="cls-3" d="M827.17,763.73A78.07,78.07,0,0,1,823,739.15c-.91-42.08,46.94-82.13,56-98.7,12.5-22.77-1.1-111.19,0-166.48.94-49.42-1.5-101.9,5.75-149.63,2.77-18.18,29.21-27.06,44.45-31.38,11.62-3.28,38.29-10.88,47.78.3-1.75,10.43-2.61,15.65-4.32,26.08,13.17-25.4,34.47-48.33,62.83-56.08l5.44-1.46c41.83-9.22,67.14,28,76.4,63.54,20.9,80.17-2.83,220.84-95.22,247.82-23,6.71-51.25,4.11-66.6-16.49q-3.15,81.27-5.08,162.58c-.54,34.55-16.84,70.42-51.29,81.74C869.44,810.75,836.63,793.7,827.17,763.73Zm51.37-34.49c-.24-23.17.12-46.33.19-69.5-26.35,16.69-39.17,46.5-39.06,76.9a72,72,0,0,0,3.06,19c3.07,9.36,8.77,17.12,18.26,14.77l1.43-.47C876.51,764.41,878.58,742,878.54,729.24Zm166.4-406.54c-2-8.32-6.72-22.43-17.64-22.19l-7.15,1.22c-34,9.83-50.35,60-55.55,90.93q-2.43,35.83-4.65,71.7c-1.91,18.84-1.59,39.29,3.86,57.56,3.87,12.94,13.74,28.46,29.55,26.57l5.39-.83c33.1-10.87,41.46-66.54,46.19-95.31C1051.78,410.79,1055,363.5,1044.94,322.7Z"/><path class="cls-3" d="M1229.85,527c-42.59,11-67.75-19.33-77.49-57.28-18.16-70.76-6.43-150.53,7.29-221.23,5.21-16.83,26.18-24.29,41.3-27.52,13.08-2.8,42.53-10.36,52.75,2.68l-.3,2.24c-12.1,36.08-18.69,74.71-24.58,112.19-6.81,43.42-14.72,92.73-5,136,2,8.7,6.45,20.31,16.57,22,2.58.81,5.61.1,7.82-.47,31.58-8.13,43.26-67.36,49.27-94.26a4.36,4.36,0,0,1,3.33-2.94c3.8-.88,5.2,1.69,5.51,3.06l.32,1.37c-5.69,46.3-19.46,106.54-70.12,122.47Zm-49.56-360.43c-5.92-27.23,14.53-59.86,42.26-65.77,19.82-4.23,38.65,4,43.45,24.66,6.34,27.22-16.34,56.8-42,63.23C1206.06,193.15,1184.63,186.5,1180.29,166.56Z"/><path class="cls-3" d="M1347.32,500.41c-27.26,2.59-39.06-25.47-44.21-47.59-17.58-75.49-3.83-164,12.64-239,4.22-17.54,27.31-25.91,42.33-28.71,13.68-2.55,44-9.25,54.4,4.38L1412,191c-21.17,70.91-41.53,140.28-44.74,214.71,13.76-49.22,29-98.28,51.23-144.42,20.71-43,51.5-96.91,101.52-109.5l4.75-.89c27-4.86,53.23,6,57.92,35.21,8.82,55-34,139.27-92.72,150l-3.84.76a4.09,4.09,0,0,1-4.67-3.38l1-3.06c21.55-29.31,36.13-88.34,30-123.48-1.07-6.14-3.56-10.07-7.62-10l-3.15.6c-20.27,4.75-33.69,30-43,46.46-15.59,27.56-27.58,57.19-38.5,86.86-18.58,50.47-36.1,103.54-45,156.75-4.92,7.45-16.7,10.09-24.82,12.08Z"/><path class="cls-3" d="M1588.09,345.41C1574.49,268.25,1611.73,135.48,1703,121l.8-.13c33.7-6.08,68.88,9.42,74.41,45.65,3,19.6-2.67,38.93-10.08,57-15,32.66-48.1,56.23-83,62.21-10,1.72-19,1-23.44-1.8-4.45,24.46-7.1,48.74-3.53,72.72,3.89,26.09,21.33,50.46,51.33,48.5a85,85,0,0,0,13.06-1.41c49-7.91,75.21-56.05,90.21-98.56a4,4,0,0,1,3.47-3.34c2.33-.33,5.63.62,6,3.4l-.58,1.51c-14.74,63-47.28,110.78-114.61,121.63C1646.87,438,1598.78,406,1588.09,345.41Zm159.66-160.86c-1.2-9.46-8.26-18.19-18.69-16.37l-.79.13c-33.8,7.4-51.67,56.71-59.68,85.16a102.65,102.65,0,0,0,19.86-1.14C1719.92,247.26,1752.15,219,1747.75,184.55Z"/></g><path d="M270.16,815.91c-65.85,27-147.2,29.67-181.39-44.68-39.46-85.82,7.67-192.44,82.11-242.13-35.17-2.08-76.52-12.72-91.8-48.41-33.3-77.75,59.32-148.42,119.44-174.43l4.62-1.88c47.57-17.16,117.4-26.15,139.85,32.44,16.24,42.4-2,101-46.09,118.73-22.49,9-44.87,4.87-66.92-3.18l-2.36-3.6c.48-1,.7-2.57,2.2-3.19,27.27-23.52,43-70.95,29.66-105.47-6.65-17.18-25.36-25-42.77-20l-7.18,2.16c-49.95,19.34-64.26,98.81-45.77,142.5,11.45,27.07,38.59,41.16,68,36.35,2.51-.28,4.06,1.36,5.14,4,.32.79.49,1.18.81,2,.6,3.56.47,7.42-1.76,8.35-80.53,39-94,165.18-62.1,238.94,13.38,30.89,42.28,55.42,76.92,40l.71-.31c29.54-13.55,40.27-54.3,45.24-83.14,6.41-37.19,5.77-79.23-8.19-114.43-3.39-8.57-8.94-18.11-15.42-24.86l-.8-2a3.53,3.53,0,0,1,.4-3.21c.46-1,2.67-1.86,3.41-2.17,37-6.22,74.52,6,89.21,42.8,5.51,13.81,7.21,27.65,7.69,42.42-.92,63-33.74,135.41-93.69,162.43Z"/><path d="M457.59,738.65c-24.65,5.22-40-19.2-47.65-38.69a209.8,209.8,0,0,1-11.49-39.37C384.31,596.5,380.4,525.9,386.33,460.44c1.55-18,23.14-29.7,37.58-34.7,12.91-4.48,41.11-15.38,53.44-4.16,0,.9,0,1.35,0,2.26a1098.39,1098.39,0,0,0-8.71,206.33c6.61-48.91,14.38-97.94,29.5-145.06,14-43.58,36.51-99.56,83.37-116.53l.76-.27c22.32-8.27,41.1,2.3,48.3,24.32,4.82,14.73,5.43,29.71,5.29,45.06C634.11,483.4,629.18,529,624.2,574.4c6.36-48.07,16.29-96.16,31.59-142.21,13.12-39.46,34.5-101.34,79.08-115.53l.77-.25c23.67-6.94,44.63-.5,52.25,24.11,11.73,38,2.74,83.66-1.79,122.26-4.06,34.54-14.32,77.57-3.79,111.51,3.54,11.41,13,17.66,24.64,13.49,33.39-12,45.89-68.64,49.61-100.52a3.92,3.92,0,0,1,2.9-3.83c2.24-.69,4.89,0,5.72,2.66.16.54.24.81.41,1.34-2,46.51-15.62,113.35-67.14,129l-2.19.71c-35.63,9.5-75.25,10.49-88.93-30.53-12.16-36.5-4.74-79.06,1.89-115.89,4.61-25.59,19.45-60.94,13.37-85-.32-1.27-.87-2.67-2.6-2.85l-2.5.07c-14.63,6.65-21.51,30.2-26.73,43.77-10.53,27.39-18.36,55.86-25.55,84.29C653,559,642.47,608,635.42,657.06c-1.54,14-6.86,17.38-9.72,18.43-30.74,11.22-57.73-2.69-67.79-33a205.17,205.17,0,0,1-8-35.3c-3.27-30.58,2.46-62.44,6.61-92.67,3.09-22.58,12.41-53,6-74.31-.59-1.93-1.7-2.39-3.44-2.52l-1.5.54c-14.66,7.74-20.69,31-25.63,45.42-9.28,27.06-15.95,55-22,83C499,616.7,490.31,667.49,484.33,718.41c-.21,1.59-.83,6.36-4.16,8.4-5.68,4.47-10.89,8-15.89,10Z"/><path d="M804.11,736.07A78.13,78.13,0,0,1,800,711.49c-.92-42.08,46.94-82.14,56-98.7,12.5-22.77-1.1-111.2,0-166.48.95-49.42-1.49-101.91,5.76-149.64,2.77-18.17,29.2-27.06,44.45-31.37,11.62-3.29,38.28-10.88,47.78.3-1.75,10.43-2.61,15.65-4.32,26.08,13.17-25.41,34.47-48.33,62.83-56.08l5.44-1.47c41.83-9.22,67.14,28,76.4,63.55,20.9,80.16-2.83,220.84-95.22,247.81-23,6.72-51.26,4.12-66.6-16.48q-3.15,81.27-5.08,162.58c-.55,34.55-16.84,70.42-51.29,81.74C846.39,783.09,813.58,766,804.11,736.07Zm51.37-34.49c-.24-23.17.13-46.33.19-69.5-26.34,16.69-39.17,46.49-39,76.9a72.42,72.42,0,0,0,3,19c3.07,9.36,8.77,17.12,18.27,14.77l1.42-.47C853.46,736.75,855.53,714.34,855.48,701.58ZM1021.88,295c-2-8.32-6.72-22.43-17.64-22.2l-7.14,1.23c-34,9.83-50.35,60-55.55,90.92q-2.44,35.85-4.65,71.71c-1.91,18.83-1.59,39.29,3.86,57.56,3.86,12.94,13.74,28.46,29.55,26.56l5.38-.83c33.11-10.87,41.46-66.53,46.2-95.3C1028.73,383.13,1031.92,335.84,1021.88,295Z"/><path d="M1206.8,499.33c-42.59,11-67.75-19.33-77.49-57.28-18.16-70.77-6.44-150.54,7.29-221.23,5.2-16.83,26.18-24.29,41.3-27.53,13.08-2.8,42.53-10.35,52.75,2.68-.12.9-.19,1.35-.31,2.24-12.1,36.09-18.68,74.71-24.57,112.2-6.81,43.41-14.72,92.73-5,136,2,8.69,6.45,20.3,16.57,22,2.58.81,5.6.1,7.82-.47,31.58-8.13,43.25-67.37,49.27-94.26a4.36,4.36,0,0,1,3.32-2.94c3.81-.88,5.2,1.68,5.52,3.06l.32,1.37c-5.69,46.29-19.46,106.54-70.12,122.47ZM1157.24,138.9c-5.92-27.24,14.52-59.86,42.26-65.78,19.81-4.22,38.65,4,43.45,24.67,6.33,27.21-16.35,56.8-42,63.23C1183,165.49,1161.58,158.84,1157.24,138.9Z"/><path d="M1324.27,472.75c-27.26,2.59-39.06-25.47-44.21-47.59-17.58-75.49-3.83-164,12.64-239,4.21-17.54,27.31-25.92,42.33-28.71,13.67-2.55,44-9.26,54.4,4.37l-.5,1.55c-21.17,70.91-41.53,140.27-44.74,214.71,13.76-49.22,29-98.28,51.23-144.43,20.71-43,51.5-96.91,101.52-109.49l4.75-.9c27-4.85,53.23,6,57.92,35.22,8.82,55-34,139.26-92.72,150l-3.84.77a4.11,4.11,0,0,1-4.68-3.38c.4-1.23.6-1.84,1-3.07,21.55-29.31,36.13-88.34,30-123.47-1.06-6.14-3.55-10.08-7.61-10l-3.15.6c-20.28,4.75-33.69,30-43,46.46-15.59,27.56-27.59,57.19-38.5,86.85-18.58,50.48-36.1,103.55-45,156.76-4.91,7.45-16.7,10.09-24.81,12.08Z"/><path d="M1565,317.74c-13.6-77.15,23.64-209.92,114.88-224.45l.8-.12c33.71-6.08,68.89,9.41,74.42,45.64,3,19.61-2.68,38.94-10.08,57-15,32.66-48.1,56.23-83,62.21-10,1.72-19,1-23.44-1.8-4.45,24.46-7.1,48.74-3.53,72.72,3.89,26.09,21.33,50.46,51.33,48.5a83.5,83.5,0,0,0,13-1.42c49-7.9,75.22-56,90.22-98.55a3.94,3.94,0,0,1,3.47-3.34c2.33-.34,5.63.61,6,3.4l-.57,1.5c-14.74,63-47.28,110.79-114.61,121.63C1623.82,410.37,1575.72,378.35,1565,317.74ZM1724.7,156.88c-1.21-9.45-8.26-18.18-18.69-16.36l-.79.12c-33.8,7.41-51.67,56.71-59.68,85.17a102.65,102.65,0,0,0,19.86-1.14C1696.87,219.6,1729.09,191.32,1724.7,156.88Z"/><path class="cls-5" d="M270.16,815.91c-65.85,27-147.2,29.67-181.39-44.68-39.46-85.82,7.67-192.44,82.11-242.13-35.17-2.08-76.52-12.72-91.8-48.41-33.3-77.75,59.32-148.42,119.44-174.43l4.62-1.88c47.57-17.16,117.4-26.15,139.85,32.44,16.24,42.4-2,101-46.09,118.73-22.49,9-44.87,4.87-66.92-3.18l-2.36-3.6c.48-1,.7-2.57,2.2-3.19,27.27-23.52,43-70.95,29.66-105.47-6.65-17.18-25.36-25-42.77-20l-7.18,2.16c-49.95,19.34-64.26,98.81-45.77,142.5,11.45,27.07,38.59,41.16,68,36.35,2.51-.28,4.06,1.36,5.14,4,.32.79.49,1.18.81,2,.6,3.56.47,7.42-1.76,8.35-80.53,39-94,165.18-62.1,238.94,13.38,30.89,42.28,55.42,76.92,40l.71-.31c29.54-13.55,40.27-54.3,45.24-83.14,6.41-37.19,5.77-79.23-8.19-114.43-3.39-8.57-8.94-18.11-15.42-24.86l-.8-2a3.53,3.53,0,0,1,.4-3.21c.46-1,2.67-1.86,3.41-2.17,37-6.22,74.52,6,89.21,42.8,5.51,13.81,7.21,27.65,7.69,42.42-.92,63-33.74,135.41-93.69,162.43Z"/><path class="cls-5" d="M457.59,738.65c-24.65,5.22-40-19.2-47.65-38.69a209.8,209.8,0,0,1-11.49-39.37C384.31,596.5,380.4,525.9,386.33,460.44c1.55-18,23.14-29.7,37.58-34.7,12.91-4.48,41.11-15.38,53.44-4.16,0,.9,0,1.35,0,2.26a1098.39,1098.39,0,0,0-8.71,206.33c6.61-48.91,14.38-97.94,29.5-145.06,14-43.58,36.51-99.56,83.37-116.53l.76-.27c22.32-8.27,41.1,2.3,48.3,24.32,4.82,14.73,5.43,29.71,5.29,45.06C634.11,483.4,629.18,529,624.2,574.4c6.36-48.07,16.29-96.16,31.59-142.21,13.12-39.46,34.5-101.34,79.08-115.53l.77-.25c23.67-6.94,44.63-.5,52.25,24.11,11.73,38,2.74,83.66-1.79,122.26-4.06,34.54-14.32,77.57-3.79,111.51,3.54,11.41,13,17.66,24.64,13.49,33.39-12,45.89-68.64,49.61-100.52a3.92,3.92,0,0,1,2.9-3.83c2.24-.69,4.89,0,5.72,2.66.16.54.24.81.41,1.34-2,46.51-15.62,113.35-67.14,129l-2.19.71c-35.63,9.5-75.25,10.49-88.93-30.53-12.16-36.5-4.74-79.06,1.89-115.89,4.61-25.59,19.45-60.94,13.37-85-.32-1.27-.87-2.67-2.6-2.85l-2.5.07c-14.63,6.65-21.51,30.2-26.73,43.77-10.53,27.39-18.36,55.86-25.55,84.29C653,559,642.47,608,635.42,657.06c-1.54,14-6.86,17.38-9.72,18.43-30.74,11.22-57.73-2.69-67.79-33a205.17,205.17,0,0,1-8-35.3c-3.27-30.58,2.46-62.44,6.61-92.67,3.09-22.58,12.41-53,6-74.31-.59-1.93-1.7-2.39-3.44-2.52l-1.5.54c-14.66,7.74-20.69,31-25.63,45.42-9.28,27.06-15.95,55-22,83C499,616.7,490.31,667.49,484.33,718.41c-.21,1.59-.83,6.36-4.16,8.4-5.68,4.47-10.89,8-15.89,10Z"/><path class="cls-5" d="M804.11,736.07A78.13,78.13,0,0,1,800,711.49c-.92-42.08,46.94-82.14,56-98.7,12.5-22.77-1.1-111.2,0-166.48.95-49.42-1.49-101.91,5.76-149.64,2.77-18.17,29.2-27.06,44.45-31.37,11.62-3.29,38.28-10.88,47.78.3-1.75,10.43-2.61,15.65-4.32,26.08,13.17-25.41,34.47-48.33,62.83-56.08l5.44-1.47c41.83-9.22,67.14,28,76.4,63.55,20.9,80.16-2.83,220.84-95.22,247.81-23,6.72-51.26,4.12-66.6-16.48q-3.15,81.27-5.08,162.58c-.55,34.55-16.84,70.42-51.29,81.74C846.39,783.09,813.58,766,804.11,736.07Zm51.37-34.49c-.24-23.17.13-46.33.19-69.5-26.34,16.69-39.17,46.49-39,76.9a72.42,72.42,0,0,0,3,19c3.07,9.36,8.77,17.12,18.27,14.77l1.42-.47C853.46,736.75,855.53,714.34,855.48,701.58ZM1021.88,295c-2-8.32-6.72-22.43-17.64-22.2l-7.14,1.23c-34,9.83-50.35,60-55.55,90.92q-2.44,35.85-4.65,71.71c-1.91,18.83-1.59,39.29,3.86,57.56,3.86,12.94,13.74,28.46,29.55,26.56l5.38-.83c33.11-10.87,41.46-66.53,46.2-95.3C1028.73,383.13,1031.92,335.84,1021.88,295Z"/><path class="cls-5" d="M1206.8,499.33c-42.59,11-67.75-19.33-77.49-57.28-18.16-70.77-6.44-150.54,7.29-221.23,5.2-16.83,26.18-24.29,41.3-27.53,13.08-2.8,42.53-10.35,52.75,2.68-.12.9-.19,1.35-.31,2.24-12.1,36.09-18.68,74.71-24.57,112.2-6.81,43.41-14.72,92.73-5,136,2,8.69,6.45,20.3,16.57,22,2.58.81,5.6.1,7.82-.47,31.58-8.13,43.25-67.37,49.27-94.26a4.36,4.36,0,0,1,3.32-2.94c3.81-.88,5.2,1.68,5.52,3.06l.32,1.37c-5.69,46.29-19.46,106.54-70.12,122.47ZM1157.24,138.9c-5.92-27.24,14.52-59.86,42.26-65.78,19.81-4.22,38.65,4,43.45,24.67,6.33,27.21-16.35,56.8-42,63.23C1183,165.49,1161.58,158.84,1157.24,138.9Z"/><path class="cls-5" d="M1324.27,472.75c-27.26,2.59-39.06-25.47-44.21-47.59-17.58-75.49-3.83-164,12.64-239,4.21-17.54,27.31-25.92,42.33-28.71,13.67-2.55,44-9.26,54.4,4.37l-.5,1.55c-21.17,70.91-41.53,140.27-44.74,214.71,13.76-49.22,29-98.28,51.23-144.43,20.71-43,51.5-96.91,101.52-109.49l4.75-.9c27-4.85,53.23,6,57.92,35.22,8.82,55-34,139.26-92.72,150l-3.84.77a4.11,4.11,0,0,1-4.68-3.38c.4-1.23.6-1.84,1-3.07,21.55-29.31,36.13-88.34,30-123.47-1.06-6.14-3.55-10.08-7.61-10l-3.15.6c-20.28,4.75-33.69,30-43,46.46-15.59,27.56-27.59,57.19-38.5,86.85-18.58,50.48-36.1,103.55-45,156.76-4.91,7.45-16.7,10.09-24.81,12.08Z"/><path class="cls-5" d="M1565,317.74c-13.6-77.15,23.64-209.92,114.88-224.45l.8-.12c33.71-6.08,68.89,9.41,74.42,45.64,3,19.61-2.68,38.94-10.08,57-15,32.66-48.1,56.23-83,62.21-10,1.72-19,1-23.44-1.8-4.45,24.46-7.1,48.74-3.53,72.72,3.89,26.09,21.33,50.46,51.33,48.5a83.5,83.5,0,0,0,13-1.42c49-7.9,75.22-56,90.22-98.55a3.94,3.94,0,0,1,3.47-3.34c2.33-.34,5.63.61,6,3.4l-.57,1.5c-14.74,63-47.28,110.79-114.61,121.63C1623.82,410.37,1575.72,378.35,1565,317.74ZM1724.7,156.88c-1.21-9.45-8.26-18.18-18.69-16.36l-.79.12c-33.8,7.41-51.67,56.71-59.68,85.17a102.65,102.65,0,0,0,19.86-1.14C1696.87,219.6,1729.09,191.32,1724.7,156.88Z"/><path class="cls-6" d="M270.16,815.91c-65.85,27-147.2,29.67-181.39-44.68-39.46-85.82,7.67-192.44,82.11-242.13-35.17-2.08-76.52-12.72-91.8-48.41-33.3-77.75,59.32-148.42,119.44-174.43l4.62-1.88c47.57-17.16,117.4-26.15,139.85,32.44,16.24,42.4-2,101-46.09,118.73-22.49,9-44.87,4.87-66.92-3.18l-2.36-3.6c.48-1,.7-2.57,2.2-3.19,27.27-23.52,43-70.95,29.66-105.47-6.65-17.18-25.36-25-42.77-20l-7.18,2.16c-49.95,19.34-64.26,98.81-45.77,142.5,11.45,27.07,38.59,41.16,68,36.35,2.51-.28,4.06,1.36,5.14,4,.32.79.49,1.18.81,2,.6,3.56.47,7.42-1.76,8.35-80.53,39-94,165.18-62.1,238.94,13.38,30.89,42.28,55.42,76.92,40l.71-.31c29.54-13.55,40.27-54.3,45.24-83.14,6.41-37.19,5.77-79.23-8.19-114.43-3.39-8.57-8.94-18.11-15.42-24.86l-.8-2a3.53,3.53,0,0,1,.4-3.21c.46-1,2.67-1.86,3.41-2.17,37-6.22,74.52,6,89.21,42.8,5.51,13.81,7.21,27.65,7.69,42.42-.92,63-33.74,135.41-93.69,162.43Z"/><path class="cls-6" d="M457.59,738.65c-24.65,5.22-40-19.2-47.65-38.69a209.8,209.8,0,0,1-11.49-39.37C384.31,596.5,380.4,525.9,386.33,460.44c1.55-18,23.14-29.7,37.58-34.7,12.91-4.48,41.11-15.38,53.44-4.16,0,.9,0,1.35,0,2.26a1098.39,1098.39,0,0,0-8.71,206.33c6.61-48.91,14.38-97.94,29.5-145.06,14-43.58,36.51-99.56,83.37-116.53l.76-.27c22.32-8.27,41.1,2.3,48.3,24.32,4.82,14.73,5.43,29.71,5.29,45.06C634.11,483.4,629.18,529,624.2,574.4c6.36-48.07,16.29-96.16,31.59-142.21,13.12-39.46,34.5-101.34,79.08-115.53l.77-.25c23.67-6.94,44.63-.5,52.25,24.11,11.73,38,2.74,83.66-1.79,122.26-4.06,34.54-14.32,77.57-3.79,111.51,3.54,11.41,13,17.66,24.64,13.49,33.39-12,45.89-68.64,49.61-100.52a3.92,3.92,0,0,1,2.9-3.83c2.24-.69,4.89,0,5.72,2.66.16.54.24.81.41,1.34-2,46.51-15.62,113.35-67.14,129l-2.19.71c-35.63,9.5-75.25,10.49-88.93-30.53-12.16-36.5-4.74-79.06,1.89-115.89,4.61-25.59,19.45-60.94,13.37-85-.32-1.27-.87-2.67-2.6-2.85l-2.5.07c-14.63,6.65-21.51,30.2-26.73,43.77-10.53,27.39-18.36,55.86-25.55,84.29C653,559,642.47,608,635.42,657.06c-1.54,14-6.86,17.38-9.72,18.43-30.74,11.22-57.73-2.69-67.79-33a205.17,205.17,0,0,1-8-35.3c-3.27-30.58,2.46-62.44,6.61-92.67,3.09-22.58,12.41-53,6-74.31-.59-1.93-1.7-2.39-3.44-2.52l-1.5.54c-14.66,7.74-20.69,31-25.63,45.42-9.28,27.06-15.95,55-22,83C499,616.7,490.31,667.49,484.33,718.41c-.21,1.59-.83,6.36-4.16,8.4-5.68,4.47-10.89,8-15.89,10Z"/><path class="cls-6" d="M804.11,736.07A78.13,78.13,0,0,1,800,711.49c-.92-42.08,46.94-82.14,56-98.7,12.5-22.77-1.1-111.2,0-166.48.95-49.42-1.49-101.91,5.76-149.64,2.77-18.17,29.2-27.06,44.45-31.37,11.62-3.29,38.28-10.88,47.78.3-1.75,10.43-2.61,15.65-4.32,26.08,13.17-25.41,34.47-48.33,62.83-56.08l5.44-1.47c41.83-9.22,67.14,28,76.4,63.55,20.9,80.16-2.83,220.84-95.22,247.81-23,6.72-51.26,4.12-66.6-16.48q-3.15,81.27-5.08,162.58c-.55,34.55-16.84,70.42-51.29,81.74C846.39,783.09,813.58,766,804.11,736.07Zm51.37-34.49c-.24-23.17.13-46.33.19-69.5-26.34,16.69-39.17,46.49-39,76.9a72.42,72.42,0,0,0,3,19c3.07,9.36,8.77,17.12,18.27,14.77l1.42-.47C853.46,736.75,855.53,714.34,855.48,701.58ZM1021.88,295c-2-8.32-6.72-22.43-17.64-22.2l-7.14,1.23c-34,9.83-50.35,60-55.55,90.92q-2.44,35.85-4.65,71.71c-1.91,18.83-1.59,39.29,3.86,57.56,3.86,12.94,13.74,28.46,29.55,26.56l5.38-.83c33.11-10.87,41.46-66.53,46.2-95.3C1028.73,383.13,1031.92,335.84,1021.88,295Z"/><path class="cls-6" d="M1206.8,499.33c-42.59,11-67.75-19.33-77.49-57.28-18.16-70.77-6.44-150.54,7.29-221.23,5.2-16.83,26.18-24.29,41.3-27.53,13.08-2.8,42.53-10.35,52.75,2.68-.12.9-.19,1.35-.31,2.24-12.1,36.09-18.68,74.71-24.57,112.2-6.81,43.41-14.72,92.73-5,136,2,8.69,6.45,20.3,16.57,22,2.58.81,5.6.1,7.82-.47,31.58-8.13,43.25-67.37,49.27-94.26a4.36,4.36,0,0,1,3.32-2.94c3.81-.88,5.2,1.68,5.52,3.06l.32,1.37c-5.69,46.29-19.46,106.54-70.12,122.47ZM1157.24,138.9c-5.92-27.24,14.52-59.86,42.26-65.78,19.81-4.22,38.65,4,43.45,24.67,6.33,27.21-16.35,56.8-42,63.23C1183,165.49,1161.58,158.84,1157.24,138.9Z"/><path class="cls-6" d="M1324.27,472.75c-27.26,2.59-39.06-25.47-44.21-47.59-17.58-75.49-3.83-164,12.64-239,4.21-17.54,27.31-25.92,42.33-28.71,13.67-2.55,44-9.26,54.4,4.37l-.5,1.55c-21.17,70.91-41.53,140.27-44.74,214.71,13.76-49.22,29-98.28,51.23-144.43,20.71-43,51.5-96.91,101.52-109.49l4.75-.9c27-4.85,53.23,6,57.92,35.22,8.82,55-34,139.26-92.72,150l-3.84.77a4.11,4.11,0,0,1-4.68-3.38c.4-1.23.6-1.84,1-3.07,21.55-29.31,36.13-88.34,30-123.47-1.06-6.14-3.55-10.08-7.61-10l-3.15.6c-20.28,4.75-33.69,30-43,46.46-15.59,27.56-27.59,57.19-38.5,86.85-18.58,50.48-36.1,103.55-45,156.76-4.91,7.45-16.7,10.09-24.81,12.08Z"/><path class="cls-6" d="M1565,317.74c-13.6-77.15,23.64-209.92,114.88-224.45l.8-.12c33.71-6.08,68.89,9.41,74.42,45.64,3,19.61-2.68,38.94-10.08,57-15,32.66-48.1,56.23-83,62.21-10,1.72-19,1-23.44-1.8-4.45,24.46-7.1,48.74-3.53,72.72,3.89,26.09,21.33,50.46,51.33,48.5a83.5,83.5,0,0,0,13-1.42c49-7.9,75.22-56,90.22-98.55a3.94,3.94,0,0,1,3.47-3.34c2.33-.34,5.63.61,6,3.4l-.57,1.5c-14.74,63-47.28,110.79-114.61,121.63C1623.82,410.37,1575.72,378.35,1565,317.74ZM1724.7,156.88c-1.21-9.45-8.26-18.18-18.69-16.36l-.79.12c-33.8,7.41-51.67,56.71-59.68,85.17a102.65,102.65,0,0,0,19.86-1.14C1696.87,219.6,1729.09,191.32,1724.7,156.88Z"/><g class="cls-2"><path class="cls-3" d="M961.05,901.83c-17.76-39.18-21.81-85.87-24.33-128.45-2-33.89-3.14-68.83.85-102.64,1.86-10.56,12.83-17.26,21.77-20.65,8.36-3.16,24.07-10.56,33.16-4.87l.29.7c-.64,6.89-.95,10.33-1.56,17.22,11-12.23,25.24-22.92,40.45-29,19.38-7.77,43.27-7.39,54.09,13.53l2.6,5.55c13.34,34.5-18.81,69.43-44.11,88.38,34-5.79,71.56,10.74,84.5,43.84a68.11,68.11,0,0,1,4.15,17.24c4.17,36.59-16.12,69.87-50.33,83.48l-1.82.76c-25.66,10.78-58.19,6.36-70.45-20.78-.94-2.07-2.39-4.84-2.56-6.8a49,49,0,0,0-.69-5.54,2.25,2.25,0,0,1-.25-1.56c-2.4-18,9-35.32,25.32-42.19a64.69,64.69,0,0,1,25.24-4.84,3.15,3.15,0,0,1,2.38,1.5,2.1,2.1,0,0,1-.39,2.23c-9.51,15.25-19.06,31.27-20.95,49.53-.33,4.29,0,9.14,1.54,12.64,2.28,5.26,7.16,8.54,15.79,6.51l4.9-1.67c23-10.59,29.84-42.77,25.48-65.66a103,103,0,0,0-5.39-19.66c-10.78-27.77-40-34-66.87-35.06a2.47,2.47,0,0,1-2.8-1.3,1.71,1.71,0,0,1,.92-2c21.94-20.12,47.84-52.35,37-84.27l-.72-1.77c-4-11.62-16-14.66-26.35-9.92-13.09,6-22.65,16.28-31.73,27.24a941.52,941.52,0,0,0-3.66,102.85c.65,37.16.62,80.62,16,115.07,3.26,7.3,7.4,12.58,11.84,14.78l1.35,1.07c1.09,2.44-7.5,6.62-13.86,9.59C982.64,935.79,968,917.21,961.05,901.83Z"/><path class="cls-3" d="M1269,819.87c-22,8.21-39.18-4.65-46.38-25.28-1.25-4.42-1.88-6.63-3.14-11.05-1.23,18.32-2.48,46.89-23,54.86-21.78,8.45-39-3.86-46.66-24.3-13.34-35.45-10.77-76.94-7.46-114.07.53-7.95,8.66-13.46,18-16.88,9-3.3,20.11-6.12,28.91-1.57v1.22c-8.66,38.41-17.59,92.48-4.19,129.7,2.42,6.73,7.68,11.85,12,9.37,13.36-7.66,10.64-49.84,11.38-66.06,1.22-26.64.78-53.44,2.85-80,2-10,13-15.5,21.61-18.41,10.93-3.67,22.54-4.41,24-.06l.1,1.58c-6.66,40.88-13.25,91.83-.07,131.2,3.83,11.44,8.9,15.08,15.38,12.85,14.6-5,20.83-36,22.56-52.42a2,2,0,0,1,1.42-2.08,2.21,2.21,0,0,1,3,1.42c.1.29.15.44.24.73.34,24.37-3,57.57-28.67,68.62Z"/><path class="cls-3" d="M1326.27,801.3c-14.25,2.19-21.64-12.44-25.36-23.8-13.13-40-11.14-87.54-7-129.13,1.19-8.41,10.24-14.11,20.1-17.22,8.92-2.81,20-5.21,28.14.08-.06.34-.1.51-.17.85-6.94,39.3-13.07,77.39-10.86,117.45,6.72-42.55,15.75-126.1,64-143.15l2.38-.68c13.56-3.82,28.26,1.87,31.63,16.48,6.35,27.46-8.21,76.17-39.07,84.74l-1.92.58a2.19,2.19,0,0,1-2.59-1.62c.14-.68.2-1,.34-1.7,9.47-18.1,13.32-48.71,8.45-67.77-.83-3.22-2.38-5.27-4.46-5.07l-1.58.46c-22.31,9.8-29.47,55.11-34.28,75.24-6.72,28.13-12.43,57.31-14.26,86.24,0,2.42-8.3,6.3-12,7.53Z"/><path class="cls-3" d="M1480.9,818.67a49.06,49.06,0,0,1-1.82-13.76c.11-22.78,12.16-39.39,31-51.12.21-10.64.61-21.33,1.43-31.95-3.49,10.95-11,20.14-22.55,22.95l-4.67.87c-23.52,3.66-37.9-17.61-43.34-37.56-10.47-38.45-4.07-114.8,44.44-126.24,12.64-3,25.65.13,33.08,11.35.47-3.26.79-8.85,1.35-11.74,1.53-5.88,11-10.57,21.1-13,12.08-2.88,24.87-2.7,25.9,1.77,0,.63,0,1-.06,1.58-11,51.38-13.06,105.64-16.53,157.9,22-14,39.7-35.31,41.92-62.25a2.51,2.51,0,0,1,1.92-2.4,2.12,2.12,0,0,1,2.38,1.42c.06.3.1.45.17.74.61,34.41-20.1,56.23-47.34,73.35q-1.83,29.16-3.36,58.35c-.74,18.06-10,37.86-28.54,42.61C1501.7,845.58,1484.84,834.3,1480.9,818.67ZM1508.78,802c.48-11.89.64-24.12.84-36.19-13.25,9.15-20.37,23.85-21.14,39.71a32.69,32.69,0,0,0,1.14,10c1.73,6.26,5.34,9.22,9.42,8.11C1503.49,822.36,1508.22,815.42,1508.78,802Zm4.35-138.1c1.34-17.92,4.42-37.61.31-55.23-1.45-6.22-4.77-10.61-9.35-10.25l-2.08.14c-32.29,11.53-29.44,84.87-22.76,110.13,3.11,11.77,8.43,19.09,16.1,18.63l1.14-.31C1513.28,717.53,1511.89,680.44,1513.13,663.86Z"/><path class="cls-3" d="M1592.51,669c-8.57-39.53,4.17-113.27,52.3-123.55l.4-.08c17.94-4,35.8,4.43,39.55,23.25,2.12,10.63-.5,20.8-3.49,31-6.56,17.41-22.64,31.31-40.74,35.25-5.09,1.11-9.7.91-12.08-.53-1.81,13-2.36,26.58.36,39.39,2.76,13,12.19,27.54,27.78,25.27a39.83,39.83,0,0,0,6.65-1c25.45-5.36,37.19-32.5,43.35-55.06a2,2,0,0,1,1.68-1.88c1.18-.23,2.9.22,3.18,1.72l-.25.83c-5.31,32.81-20.47,60.9-55.16,68C1624.63,718.07,1599.22,700,1592.51,669Zm77.16-90c-1.1-5.93-4.84-9.55-10.08-8.49l-.4.08c-17.1,5.53-25.4,32-28.1,47.21a51,51,0,0,0,10.16-1C1658.19,613.29,1673,596.72,1669.67,579Z"/><path class="cls-3" d="M1731.09,697.38c-14.42.31-19.83-15.15-22-26.9-7.78-41.42.42-88.26,10-129,2.28-8.18,12-12.66,22.21-14.45,9.23-1.62,20.51-2.56,27.94,3.75l-.28.82c-12.05,38.06-23.14,75-26.19,115,12.26-41.37,32.21-123,82.37-133.59l2.46-.36c13.94-2,27.83,5.51,29.27,20.46,2.7,28.11-18.23,74.47-50,78.93l-2,.32a2.17,2.17,0,0,1-2.35-1.94l.55-1.64c11.78-16.7,19.64-46.56,17.3-66.09-.4-3.31-1.68-5.54-3.77-5.61l-1.63.25c-23.43,6.79-36.5,50.77-43.92,70.13-10.37,27-19.86,55.19-25.47,83.64-.37,2.4-9.07,5.17-12.94,5.9Z"/><path class="cls-7" d="M961.05,901.83c-17.76-39.18-21.81-85.87-24.33-128.45-2-33.89-3.14-68.83.85-102.64,1.86-10.56,12.83-17.26,21.77-20.65,8.36-3.16,24.07-10.56,33.16-4.87l.29.7c-.64,6.89-.95,10.33-1.56,17.22,11-12.23,25.24-22.92,40.45-29,19.38-7.77,43.27-7.39,54.09,13.53l2.6,5.55c13.34,34.5-18.81,69.43-44.11,88.38,34-5.79,71.56,10.74,84.5,43.84a68.11,68.11,0,0,1,4.15,17.24c4.17,36.59-16.12,69.87-50.33,83.48l-1.82.76c-25.66,10.78-58.19,6.36-70.45-20.78-.94-2.07-2.39-4.84-2.56-6.8a49,49,0,0,0-.69-5.54,2.25,2.25,0,0,1-.25-1.56c-2.4-18,9-35.32,25.32-42.19a64.69,64.69,0,0,1,25.24-4.84,3.15,3.15,0,0,1,2.38,1.5,2.1,2.1,0,0,1-.39,2.23c-9.51,15.25-19.06,31.27-20.95,49.53-.33,4.29,0,9.14,1.54,12.64,2.28,5.26,7.16,8.54,15.79,6.51l4.9-1.67c23-10.59,29.84-42.77,25.48-65.66a103,103,0,0,0-5.39-19.66c-10.78-27.77-40-34-66.87-35.06a2.47,2.47,0,0,1-2.8-1.3,1.71,1.71,0,0,1,.92-2c21.94-20.12,47.84-52.35,37-84.27l-.72-1.77c-4-11.62-16-14.66-26.35-9.92-13.09,6-22.65,16.28-31.73,27.24a941.52,941.52,0,0,0-3.66,102.85c.65,37.16.62,80.62,16,115.07,3.26,7.3,7.4,12.58,11.84,14.78l1.35,1.07c1.09,2.44-7.5,6.62-13.86,9.59C982.64,935.79,968,917.21,961.05,901.83Z"/><path class="cls-7" d="M1269,819.87c-22,8.21-39.18-4.65-46.38-25.28-1.25-4.42-1.88-6.63-3.14-11.05-1.23,18.32-2.48,46.89-23,54.86-21.78,8.45-39-3.86-46.66-24.3-13.34-35.45-10.77-76.94-7.46-114.07.53-7.95,8.66-13.46,18-16.88,9-3.3,20.11-6.12,28.91-1.57v1.22c-8.66,38.41-17.59,92.48-4.19,129.7,2.42,6.73,7.68,11.85,12,9.37,13.36-7.66,10.64-49.84,11.38-66.06,1.22-26.64.78-53.44,2.85-80,2-10,13-15.5,21.61-18.41,10.93-3.67,22.54-4.41,24-.06l.1,1.58c-6.66,40.88-13.25,91.83-.07,131.2,3.83,11.44,8.9,15.08,15.38,12.85,14.6-5,20.83-36,22.56-52.42a2,2,0,0,1,1.42-2.08,2.21,2.21,0,0,1,3,1.42c.1.29.15.44.24.73.34,24.37-3,57.57-28.67,68.62Z"/><path class="cls-7" d="M1326.27,801.3c-14.25,2.19-21.64-12.44-25.36-23.8-13.13-40-11.14-87.54-7-129.13,1.19-8.41,10.24-14.11,20.1-17.22,8.92-2.81,20-5.21,28.14.08-.06.34-.1.51-.17.85-6.94,39.3-13.07,77.39-10.86,117.45,6.72-42.55,15.75-126.1,64-143.15l2.38-.68c13.56-3.82,28.26,1.87,31.63,16.48,6.35,27.46-8.21,76.17-39.07,84.74l-1.92.58a2.19,2.19,0,0,1-2.59-1.62c.14-.68.2-1,.34-1.7,9.47-18.1,13.32-48.71,8.45-67.77-.83-3.22-2.38-5.27-4.46-5.07l-1.58.46c-22.31,9.8-29.47,55.11-34.28,75.24-6.72,28.13-12.43,57.31-14.26,86.24,0,2.42-8.3,6.3-12,7.53Z"/><path class="cls-7" d="M1480.9,818.67a49.06,49.06,0,0,1-1.82-13.76c.11-22.78,12.16-39.39,31-51.12.21-10.64.61-21.33,1.43-31.95-3.49,10.95-11,20.14-22.55,22.95l-4.67.87c-23.52,3.66-37.9-17.61-43.34-37.56-10.47-38.45-4.07-114.8,44.44-126.24,12.64-3,25.65.13,33.08,11.35.47-3.26.79-8.85,1.35-11.74,1.53-5.88,11-10.57,21.1-13,12.08-2.88,24.87-2.7,25.9,1.77,0,.63,0,1-.06,1.58-11,51.38-13.06,105.64-16.53,157.9,22-14,39.7-35.31,41.92-62.25a2.51,2.51,0,0,1,1.92-2.4,2.12,2.12,0,0,1,2.38,1.42c.06.3.1.45.17.74.61,34.41-20.1,56.23-47.34,73.35q-1.83,29.16-3.36,58.35c-.74,18.06-10,37.86-28.54,42.61C1501.7,845.58,1484.84,834.3,1480.9,818.67ZM1508.78,802c.48-11.89.64-24.12.84-36.19-13.25,9.15-20.37,23.85-21.14,39.71a32.69,32.69,0,0,0,1.14,10c1.73,6.26,5.34,9.22,9.42,8.11C1503.49,822.36,1508.22,815.42,1508.78,802Zm4.35-138.1c1.34-17.92,4.42-37.61.31-55.23-1.45-6.22-4.77-10.61-9.35-10.25l-2.08.14c-32.29,11.53-29.44,84.87-22.76,110.13,3.11,11.77,8.43,19.09,16.1,18.63l1.14-.31C1513.28,717.53,1511.89,680.44,1513.13,663.86Z"/><path class="cls-7" d="M1592.51,669c-8.57-39.53,4.17-113.27,52.3-123.55l.4-.08c17.94-4,35.8,4.43,39.55,23.25,2.12,10.63-.5,20.8-3.49,31-6.56,17.41-22.64,31.31-40.74,35.25-5.09,1.11-9.7.91-12.08-.53-1.81,13-2.36,26.58.36,39.39,2.76,13,12.19,27.54,27.78,25.27a39.83,39.83,0,0,0,6.65-1c25.45-5.36,37.19-32.5,43.35-55.06a2,2,0,0,1,1.68-1.88c1.18-.23,2.9.22,3.18,1.72l-.25.83c-5.31,32.81-20.47,60.9-55.16,68C1624.63,718.07,1599.22,700,1592.51,669Zm77.16-90c-1.1-5.93-4.84-9.55-10.08-8.49l-.4.08c-17.1,5.53-25.4,32-28.1,47.21a51,51,0,0,0,10.16-1C1658.19,613.29,1673,596.72,1669.67,579Z"/><path class="cls-7" d="M1731.09,697.38c-14.42.31-19.83-15.15-22-26.9-7.78-41.42.42-88.26,10-129,2.28-8.18,12-12.66,22.21-14.45,9.23-1.62,20.51-2.56,27.94,3.75l-.28.82c-12.05,38.06-23.14,75-26.19,115,12.26-41.37,32.21-123,82.37-133.59l2.46-.36c13.94-2,27.83,5.51,29.27,20.46,2.7,28.11-18.23,74.47-50,78.93l-2,.32a2.17,2.17,0,0,1-2.35-1.94l.55-1.64c11.78-16.7,19.64-46.56,17.3-66.09-.4-3.31-1.68-5.54-3.77-5.61l-1.63.25c-23.43,6.79-36.5,50.77-43.92,70.13-10.37,27-19.86,55.19-25.47,83.64-.37,2.4-9.07,5.17-12.94,5.9Z"/><path class="cls-3" d="M961.05,901.83c-17.76-39.18-21.81-85.87-24.33-128.45-2-33.89-3.14-68.83.85-102.64,1.86-10.56,12.83-17.26,21.77-20.65,8.36-3.16,24.07-10.56,33.16-4.87l.29.7c-.64,6.89-.95,10.33-1.56,17.22,11-12.23,25.24-22.92,40.45-29,19.38-7.77,43.27-7.39,54.09,13.53l2.6,5.55c13.34,34.5-18.81,69.43-44.11,88.38,34-5.79,71.56,10.74,84.5,43.84a68.11,68.11,0,0,1,4.15,17.24c4.17,36.59-16.12,69.87-50.33,83.48l-1.82.76c-25.66,10.78-58.19,6.36-70.45-20.78-.94-2.07-2.39-4.84-2.56-6.8a49,49,0,0,0-.69-5.54,2.25,2.25,0,0,1-.25-1.56c-2.4-18,9-35.32,25.32-42.19a64.69,64.69,0,0,1,25.24-4.84,3.15,3.15,0,0,1,2.38,1.5,2.1,2.1,0,0,1-.39,2.23c-9.51,15.25-19.06,31.27-20.95,49.53-.33,4.29,0,9.14,1.54,12.64,2.28,5.26,7.16,8.54,15.79,6.51l4.9-1.67c23-10.59,29.84-42.77,25.48-65.66a103,103,0,0,0-5.39-19.66c-10.78-27.77-40-34-66.87-35.06a2.47,2.47,0,0,1-2.8-1.3,1.71,1.71,0,0,1,.92-2c21.94-20.12,47.84-52.35,37-84.27l-.72-1.77c-4-11.62-16-14.66-26.35-9.92-13.09,6-22.65,16.28-31.73,27.24a941.52,941.52,0,0,0-3.66,102.85c.65,37.16.62,80.62,16,115.07,3.26,7.3,7.4,12.58,11.84,14.78l1.35,1.07c1.09,2.44-7.5,6.62-13.86,9.59C982.64,935.79,968,917.21,961.05,901.83Z"/><path class="cls-3" d="M1269,819.87c-22,8.21-39.18-4.65-46.38-25.28-1.25-4.42-1.88-6.63-3.14-11.05-1.23,18.32-2.48,46.89-23,54.86-21.78,8.45-39-3.86-46.66-24.3-13.34-35.45-10.77-76.94-7.46-114.07.53-7.95,8.66-13.46,18-16.88,9-3.3,20.11-6.12,28.91-1.57v1.22c-8.66,38.41-17.59,92.48-4.19,129.7,2.42,6.73,7.68,11.85,12,9.37,13.36-7.66,10.64-49.84,11.38-66.06,1.22-26.64.78-53.44,2.85-80,2-10,13-15.5,21.61-18.41,10.93-3.67,22.54-4.41,24-.06l.1,1.58c-6.66,40.88-13.25,91.83-.07,131.2,3.83,11.44,8.9,15.08,15.38,12.85,14.6-5,20.83-36,22.56-52.42a2,2,0,0,1,1.42-2.08,2.21,2.21,0,0,1,3,1.42c.1.29.15.44.24.73.34,24.37-3,57.57-28.67,68.62Z"/><path class="cls-3" d="M1326.27,801.3c-14.25,2.19-21.64-12.44-25.36-23.8-13.13-40-11.14-87.54-7-129.13,1.19-8.41,10.24-14.11,20.1-17.22,8.92-2.81,20-5.21,28.14.08-.06.34-.1.51-.17.85-6.94,39.3-13.07,77.39-10.86,117.45,6.72-42.55,15.75-126.1,64-143.15l2.38-.68c13.56-3.82,28.26,1.87,31.63,16.48,6.35,27.46-8.21,76.17-39.07,84.74l-1.92.58a2.19,2.19,0,0,1-2.59-1.62c.14-.68.2-1,.34-1.7,9.47-18.1,13.32-48.71,8.45-67.77-.83-3.22-2.38-5.27-4.46-5.07l-1.58.46c-22.31,9.8-29.47,55.11-34.28,75.24-6.72,28.13-12.43,57.31-14.26,86.24,0,2.42-8.3,6.3-12,7.53Z"/><path class="cls-3" d="M1480.9,818.67a49.06,49.06,0,0,1-1.82-13.76c.11-22.78,12.16-39.39,31-51.12.21-10.64.61-21.33,1.43-31.95-3.49,10.95-11,20.14-22.55,22.95l-4.67.87c-23.52,3.66-37.9-17.61-43.34-37.56-10.47-38.45-4.07-114.8,44.44-126.24,12.64-3,25.65.13,33.08,11.35.47-3.26.79-8.85,1.35-11.74,1.53-5.88,11-10.57,21.1-13,12.08-2.88,24.87-2.7,25.9,1.77,0,.63,0,1-.06,1.58-11,51.38-13.06,105.64-16.53,157.9,22-14,39.7-35.31,41.92-62.25a2.51,2.51,0,0,1,1.92-2.4,2.12,2.12,0,0,1,2.38,1.42c.06.3.1.45.17.74.61,34.41-20.1,56.23-47.34,73.35q-1.83,29.16-3.36,58.35c-.74,18.06-10,37.86-28.54,42.61C1501.7,845.58,1484.84,834.3,1480.9,818.67ZM1508.78,802c.48-11.89.64-24.12.84-36.19-13.25,9.15-20.37,23.85-21.14,39.71a32.69,32.69,0,0,0,1.14,10c1.73,6.26,5.34,9.22,9.42,8.11C1503.49,822.36,1508.22,815.42,1508.78,802Zm4.35-138.1c1.34-17.92,4.42-37.61.31-55.23-1.45-6.22-4.77-10.61-9.35-10.25l-2.08.14c-32.29,11.53-29.44,84.87-22.76,110.13,3.11,11.77,8.43,19.09,16.1,18.63l1.14-.31C1513.28,717.53,1511.89,680.44,1513.13,663.86Z"/><path class="cls-3" d="M1592.51,669c-8.57-39.53,4.17-113.27,52.3-123.55l.4-.08c17.94-4,35.8,4.43,39.55,23.25,2.12,10.63-.5,20.8-3.49,31-6.56,17.41-22.64,31.31-40.74,35.25-5.09,1.11-9.7.91-12.08-.53-1.81,13-2.36,26.58.36,39.39,2.76,13,12.19,27.54,27.78,25.27a39.83,39.83,0,0,0,6.65-1c25.45-5.36,37.19-32.5,43.35-55.06a2,2,0,0,1,1.68-1.88c1.18-.23,2.9.22,3.18,1.72l-.25.83c-5.31,32.81-20.47,60.9-55.16,68C1624.63,718.07,1599.22,700,1592.51,669Zm77.16-90c-1.1-5.93-4.84-9.55-10.08-8.49l-.4.08c-17.1,5.53-25.4,32-28.1,47.21a51,51,0,0,0,10.16-1C1658.19,613.29,1673,596.72,1669.67,579Z"/><path class="cls-3" d="M1731.09,697.38c-14.42.31-19.83-15.15-22-26.9-7.78-41.42.42-88.26,10-129,2.28-8.18,12-12.66,22.21-14.45,9.23-1.62,20.51-2.56,27.94,3.75l-.28.82c-12.05,38.06-23.14,75-26.19,115,12.26-41.37,32.21-123,82.37-133.59l2.46-.36c13.94-2,27.83,5.51,29.27,20.46,2.7,28.11-18.23,74.47-50,78.93l-2,.32a2.17,2.17,0,0,1-2.35-1.94l.55-1.64c11.78-16.7,19.64-46.56,17.3-66.09-.4-3.31-1.68-5.54-3.77-5.61l-1.63.25c-23.43,6.79-36.5,50.77-43.92,70.13-10.37,27-19.86,55.19-25.47,83.64-.37,2.4-9.07,5.17-12.94,5.9Z"/></g><path d="M948.87,887.22c-17.75-39.17-21.81-85.87-24.32-128.45-2-33.89-3.14-68.82.85-102.64,1.86-10.55,12.83-17.25,21.77-20.64,8.35-3.17,24.06-10.56,33.16-4.88.11.29.17.43.29.71-.64,6.89-1,10.33-1.57,17.21,11-12.23,25.25-22.91,40.46-29,19.38-7.77,43.27-7.38,54.08,13.54l2.6,5.54c13.34,34.51-18.81,69.44-44.1,88.39,34-5.8,71.56,10.74,84.5,43.83a68.74,68.74,0,0,1,4.15,17.24c4.17,36.59-16.12,69.88-50.33,83.48l-1.82.77c-25.66,10.77-58.19,6.35-70.45-20.79-.94-2.06-2.39-4.84-2.57-6.8a46.64,46.64,0,0,0-.68-5.54,2.2,2.2,0,0,1-.25-1.56c-2.4-18,9-35.31,25.32-42.18a64.33,64.33,0,0,1,25.24-4.84,3.11,3.11,0,0,1,2.37,1.49,2.07,2.07,0,0,1-.38,2.23c-9.51,15.26-19.06,31.27-21,49.53-.33,4.3,0,9.14,1.54,12.64,2.27,5.26,7.16,8.55,15.79,6.52l4.9-1.68c23-10.59,29.84-42.77,25.48-65.66a103,103,0,0,0-5.39-19.66c-10.78-27.76-40-34-66.88-35a2.48,2.48,0,0,1-2.79-1.3,1.72,1.72,0,0,1,.92-2.06c21.94-20.12,47.84-52.34,37-84.26-.28-.71-.42-1.07-.71-1.77-4-11.62-15.95-14.66-26.35-9.93-13.09,6-22.65,16.28-31.73,27.24a941.7,941.7,0,0,0-3.66,102.85c.65,37.16.61,80.62,16,115.07,3.25,7.3,7.4,12.59,11.84,14.78l1.35,1.07c1.09,2.45-7.5,6.63-13.86,9.6C970.46,921.18,955.84,902.6,948.87,887.22Z"/><path d="M1256.83,805.26c-22,8.21-39.18-4.65-46.38-25.28-1.25-4.41-1.88-6.62-3.14-11-1.23,18.32-2.48,46.89-23,54.85-21.78,8.46-39-3.86-46.67-24.3-13.33-35.45-10.76-76.94-7.46-114.06.54-8,8.67-13.46,18-16.88,9-3.31,20.1-6.13,28.91-1.57,0,.48,0,.73,0,1.22-8.65,38.4-17.58,92.47-4.18,129.69,2.42,6.73,7.68,11.85,12,9.37,13.36-7.65,10.64-49.84,11.38-66.06,1.22-26.63.78-53.44,2.85-80,1.95-10,12.95-15.5,21.61-18.41,10.93-3.67,22.53-4.4,24-.06,0,.63.06.95.09,1.58-6.65,40.89-13.24,91.83-.06,131.21,3.82,11.43,8.9,15.07,15.38,12.84,14.6-5,20.83-36,22.56-52.41a2,2,0,0,1,1.42-2.08,2.2,2.2,0,0,1,3,1.41c.1.29.14.44.24.73.34,24.37-3,57.57-28.68,68.62Z"/><path d="M1314.09,786.69c-14.25,2.19-21.63-12.44-25.35-23.79-13.13-40-11.14-87.55-7-129.14,1.19-8.4,10.24-14.11,20.1-17.21,8.92-2.81,20-5.21,28.14.07-.07.34-.1.51-.17.85-6.94,39.3-13.08,77.4-10.86,117.45,6.71-42.54,15.75-126.09,64-143.15l2.38-.68c13.56-3.82,28.26,1.87,31.63,16.48,6.35,27.46-8.21,76.18-39.07,84.75l-1.93.57a2.18,2.18,0,0,1-2.58-1.62c.13-.68.2-1,.34-1.69,9.47-18.11,13.32-48.72,8.45-67.77-.83-3.23-2.39-5.28-4.47-5.07l-1.58.46c-22.3,9.79-29.46,55.11-34.27,75.23-6.72,28.13-12.43,57.31-14.26,86.25-.05,2.42-8.3,6.3-12,7.52Z"/><path d="M1468.73,804.07a49.18,49.18,0,0,1-1.82-13.77c.11-22.78,12.16-39.39,31-51.11.21-10.65.61-21.34,1.43-32-3.49,11-11,20.14-22.55,23l-4.67.86c-23.52,3.67-37.9-17.61-43.34-37.56-10.47-38.45-4.07-114.8,44.44-126.24,12.64-3,25.65.14,33.08,11.35.47-3.26.79-8.84,1.35-11.74,1.53-5.88,11-10.57,21.1-13,12.08-2.89,24.87-2.7,25.9,1.76,0,.64,0,1-.06,1.58-11,51.39-13.07,105.64-16.53,157.9,22-14,39.7-35.3,41.92-62.24a2.5,2.5,0,0,1,1.91-2.4,2.1,2.1,0,0,1,2.38,1.41c.07.3.11.45.17.75.62,34.4-20.09,56.23-47.33,73.34q-1.85,29.18-3.36,58.35c-.74,18.06-10,37.87-28.54,42.61C1489.53,831,1472.67,819.7,1468.73,804.07Zm27.87-16.72c.49-11.89.65-24.12.84-36.18-13.24,9.14-20.36,23.84-21.13,39.71a32.63,32.63,0,0,0,1.14,10c1.72,6.26,5.33,9.23,9.42,8.11C1491.32,807.76,1496.05,800.81,1496.6,787.35Zm4.36-138.1c1.34-17.92,4.42-37.61.31-55.22-1.45-6.22-4.77-10.62-9.35-10.25l-2.09.13c-32.28,11.54-29.43,84.87-22.75,110.14,3.11,11.76,8.43,19.08,16.09,18.62l1.15-.3C1501.11,702.92,1499.71,665.83,1501,649.25Z"/><path d="M1580.34,654.38c-8.57-39.54,4.17-113.28,52.29-123.55l.41-.09c17.94-4,35.8,4.44,39.55,23.25,2.11,10.64-.5,20.8-3.49,31-6.56,17.42-22.64,31.32-40.74,35.25-5.1,1.11-9.7.91-12.08-.53-1.82,13-2.36,26.58.36,39.4,2.75,13,12.19,27.54,27.78,25.27a41.06,41.06,0,0,0,6.65-1c25.45-5.37,37.19-32.51,43.34-55.07a2,2,0,0,1,1.68-1.88c1.19-.22,2.91.23,3.19,1.73l-.25.82c-5.31,32.81-20.47,60.91-55.16,68C1612.46,703.47,1587.05,685.35,1580.34,654.38Zm77.16-90c-1.11-5.93-4.84-9.55-10.08-8.49l-.4.08c-17.1,5.53-25.4,32-28.1,47.21a49.43,49.43,0,0,0,10.15-1C1646,598.68,1660.81,582.11,1657.5,564.36Z"/><path d="M1718.92,682.77c-14.42.32-19.84-15.15-22-26.9-7.78-41.42.41-88.26,10-129,2.28-8.18,12-12.65,22.21-14.44,9.23-1.63,20.5-2.56,27.94,3.74l-.28.82c-12,38.06-23.14,75-26.19,115,12.26-41.37,32.21-123,82.37-133.58l2.46-.37c13.94-2,27.83,5.51,29.27,20.47,2.7,28.1-18.23,74.46-50,78.93l-2,.31a2.17,2.17,0,0,1-2.35-1.94l.55-1.64c11.78-16.69,19.64-46.55,17.3-66.09-.4-3.3-1.68-5.54-3.77-5.6l-1.63.24c-23.43,6.8-36.5,50.78-43.92,70.13-10.37,27-19.86,55.19-25.47,83.65-.37,2.39-9.07,5.16-12.94,5.89Z"/><path class="cls-8" d="M948.87,887.22c-17.75-39.17-21.81-85.87-24.32-128.45-2-33.89-3.14-68.82.85-102.64,1.86-10.55,12.83-17.25,21.77-20.64,8.35-3.17,24.06-10.56,33.16-4.88.11.29.17.43.29.71-.64,6.89-1,10.33-1.57,17.21,11-12.23,25.25-22.91,40.46-29,19.38-7.77,43.27-7.38,54.08,13.54l2.6,5.54c13.34,34.51-18.81,69.44-44.1,88.39,34-5.8,71.56,10.74,84.5,43.83a68.74,68.74,0,0,1,4.15,17.24c4.17,36.59-16.12,69.88-50.33,83.48l-1.82.77c-25.66,10.77-58.19,6.35-70.45-20.79-.94-2.06-2.39-4.84-2.57-6.8a46.64,46.64,0,0,0-.68-5.54,2.2,2.2,0,0,1-.25-1.56c-2.4-18,9-35.31,25.32-42.18a64.33,64.33,0,0,1,25.24-4.84,3.11,3.11,0,0,1,2.37,1.49,2.07,2.07,0,0,1-.38,2.23c-9.51,15.26-19.06,31.27-21,49.53-.33,4.3,0,9.14,1.54,12.64,2.27,5.26,7.16,8.55,15.79,6.52l4.9-1.68c23-10.59,29.84-42.77,25.48-65.66a103,103,0,0,0-5.39-19.66c-10.78-27.76-40-34-66.88-35a2.48,2.48,0,0,1-2.79-1.3,1.72,1.72,0,0,1,.92-2.06c21.94-20.12,47.84-52.34,37-84.26-.28-.71-.42-1.07-.71-1.77-4-11.62-15.95-14.66-26.35-9.93-13.09,6-22.65,16.28-31.73,27.24a941.7,941.7,0,0,0-3.66,102.85c.65,37.16.61,80.62,16,115.07,3.25,7.3,7.4,12.59,11.84,14.78l1.35,1.07c1.09,2.45-7.5,6.63-13.86,9.6C970.46,921.18,955.84,902.6,948.87,887.22Z"/><path class="cls-8" d="M1256.83,805.26c-22,8.21-39.18-4.65-46.38-25.28-1.25-4.41-1.88-6.62-3.14-11-1.23,18.32-2.48,46.89-23,54.85-21.78,8.46-39-3.86-46.67-24.3-13.33-35.45-10.76-76.94-7.46-114.06.54-8,8.67-13.46,18-16.88,9-3.31,20.1-6.13,28.91-1.57,0,.48,0,.73,0,1.22-8.65,38.4-17.58,92.47-4.18,129.69,2.42,6.73,7.68,11.85,12,9.37,13.36-7.65,10.64-49.84,11.38-66.06,1.22-26.63.78-53.44,2.85-80,1.95-10,12.95-15.5,21.61-18.41,10.93-3.67,22.53-4.4,24-.06,0,.63.06.95.09,1.58-6.65,40.89-13.24,91.83-.06,131.21,3.82,11.43,8.9,15.07,15.38,12.84,14.6-5,20.83-36,22.56-52.41a2,2,0,0,1,1.42-2.08,2.2,2.2,0,0,1,3,1.41c.1.29.14.44.24.73.34,24.37-3,57.57-28.68,68.62Z"/><path class="cls-8" d="M1314.09,786.69c-14.25,2.19-21.63-12.44-25.35-23.79-13.13-40-11.14-87.55-7-129.14,1.19-8.4,10.24-14.11,20.1-17.21,8.92-2.81,20-5.21,28.14.07-.07.34-.1.51-.17.85-6.94,39.3-13.08,77.4-10.86,117.45,6.71-42.54,15.75-126.09,64-143.15l2.38-.68c13.56-3.82,28.26,1.87,31.63,16.48,6.35,27.46-8.21,76.18-39.07,84.75l-1.93.57a2.18,2.18,0,0,1-2.58-1.62c.13-.68.2-1,.34-1.69,9.47-18.11,13.32-48.72,8.45-67.77-.83-3.23-2.39-5.28-4.47-5.07l-1.58.46c-22.3,9.79-29.46,55.11-34.27,75.23-6.72,28.13-12.43,57.31-14.26,86.25-.05,2.42-8.3,6.3-12,7.52Z"/><path class="cls-8" d="M1468.73,804.07a49.18,49.18,0,0,1-1.82-13.77c.11-22.78,12.16-39.39,31-51.11.21-10.65.61-21.34,1.43-32-3.49,11-11,20.14-22.55,23l-4.67.86c-23.52,3.67-37.9-17.61-43.34-37.56-10.47-38.45-4.07-114.8,44.44-126.24,12.64-3,25.65.14,33.08,11.35.47-3.26.79-8.84,1.35-11.74,1.53-5.88,11-10.57,21.1-13,12.08-2.89,24.87-2.7,25.9,1.76,0,.64,0,1-.06,1.58-11,51.39-13.07,105.64-16.53,157.9,22-14,39.7-35.3,41.92-62.24a2.5,2.5,0,0,1,1.91-2.4,2.1,2.1,0,0,1,2.38,1.41c.07.3.11.45.17.75.62,34.4-20.09,56.23-47.33,73.34q-1.85,29.18-3.36,58.35c-.74,18.06-10,37.87-28.54,42.61C1489.53,831,1472.67,819.7,1468.73,804.07Zm27.87-16.72c.49-11.89.65-24.12.84-36.18-13.24,9.14-20.36,23.84-21.13,39.71a32.63,32.63,0,0,0,1.14,10c1.72,6.26,5.33,9.23,9.42,8.11C1491.32,807.76,1496.05,800.81,1496.6,787.35Zm4.36-138.1c1.34-17.92,4.42-37.61.31-55.22-1.45-6.22-4.77-10.62-9.35-10.25l-2.09.13c-32.28,11.54-29.43,84.87-22.75,110.14,3.11,11.76,8.43,19.08,16.09,18.62l1.15-.3C1501.11,702.92,1499.71,665.83,1501,649.25Z"/><path class="cls-8" d="M1580.34,654.38c-8.57-39.54,4.17-113.28,52.29-123.55l.41-.09c17.94-4,35.8,4.44,39.55,23.25,2.11,10.64-.5,20.8-3.49,31-6.56,17.42-22.64,31.32-40.74,35.25-5.1,1.11-9.7.91-12.08-.53-1.82,13-2.36,26.58.36,39.4,2.75,13,12.19,27.54,27.78,25.27a41.06,41.06,0,0,0,6.65-1c25.45-5.37,37.19-32.51,43.34-55.07a2,2,0,0,1,1.68-1.88c1.19-.22,2.91.23,3.19,1.73l-.25.82c-5.31,32.81-20.47,60.91-55.16,68C1612.46,703.47,1587.05,685.35,1580.34,654.38Zm77.16-90c-1.11-5.93-4.84-9.55-10.08-8.49l-.4.08c-17.1,5.53-25.4,32-28.1,47.21a49.43,49.43,0,0,0,10.15-1C1646,598.68,1660.81,582.11,1657.5,564.36Z"/><path class="cls-8" d="M1718.92,682.77c-14.42.32-19.84-15.15-22-26.9-7.78-41.42.41-88.26,10-129,2.28-8.18,12-12.65,22.21-14.44,9.23-1.63,20.5-2.56,27.94,3.74l-.28.82c-12,38.06-23.14,75-26.19,115,12.26-41.37,32.21-123,82.37-133.58l2.46-.37c13.94-2,27.83,5.51,29.27,20.47,2.7,28.1-18.23,74.46-50,78.93l-2,.31a2.17,2.17,0,0,1-2.35-1.94l.55-1.64c11.78-16.69,19.64-46.55,17.3-66.09-.4-3.3-1.68-5.54-3.77-5.6l-1.63.24c-23.43,6.8-36.5,50.78-43.92,70.13-10.37,27-19.86,55.19-25.47,83.65-.37,2.39-9.07,5.16-12.94,5.89Z"/><path class="cls-6" d="M948.87,887.22c-17.75-39.17-21.81-85.87-24.32-128.45-2-33.89-3.14-68.82.85-102.64,1.86-10.55,12.83-17.25,21.77-20.64,8.35-3.17,24.06-10.56,33.16-4.88.11.29.17.43.29.71-.64,6.89-1,10.33-1.57,17.21,11-12.23,25.25-22.91,40.46-29,19.38-7.77,43.27-7.38,54.08,13.54l2.6,5.54c13.34,34.51-18.81,69.44-44.1,88.39,34-5.8,71.56,10.74,84.5,43.83a68.74,68.74,0,0,1,4.15,17.24c4.17,36.59-16.12,69.88-50.33,83.48l-1.82.77c-25.66,10.77-58.19,6.35-70.45-20.79-.94-2.06-2.39-4.84-2.57-6.8a46.64,46.64,0,0,0-.68-5.54,2.2,2.2,0,0,1-.25-1.56c-2.4-18,9-35.31,25.32-42.18a64.33,64.33,0,0,1,25.24-4.84,3.11,3.11,0,0,1,2.37,1.49,2.07,2.07,0,0,1-.38,2.23c-9.51,15.26-19.06,31.27-21,49.53-.33,4.3,0,9.14,1.54,12.64,2.27,5.26,7.16,8.55,15.79,6.52l4.9-1.68c23-10.59,29.84-42.77,25.48-65.66a103,103,0,0,0-5.39-19.66c-10.78-27.76-40-34-66.88-35a2.48,2.48,0,0,1-2.79-1.3,1.72,1.72,0,0,1,.92-2.06c21.94-20.12,47.84-52.34,37-84.26-.28-.71-.42-1.07-.71-1.77-4-11.62-15.95-14.66-26.35-9.93-13.09,6-22.65,16.28-31.73,27.24a941.7,941.7,0,0,0-3.66,102.85c.65,37.16.61,80.62,16,115.07,3.25,7.3,7.4,12.59,11.84,14.78l1.35,1.07c1.09,2.45-7.5,6.63-13.86,9.6C970.46,921.18,955.84,902.6,948.87,887.22Z"/><path class="cls-6" d="M1256.83,805.26c-22,8.21-39.18-4.65-46.38-25.28-1.25-4.41-1.88-6.62-3.14-11-1.23,18.32-2.48,46.89-23,54.85-21.78,8.46-39-3.86-46.67-24.3-13.33-35.45-10.76-76.94-7.46-114.06.54-8,8.67-13.46,18-16.88,9-3.31,20.1-6.13,28.91-1.57,0,.48,0,.73,0,1.22-8.65,38.4-17.58,92.47-4.18,129.69,2.42,6.73,7.68,11.85,12,9.37,13.36-7.65,10.64-49.84,11.38-66.06,1.22-26.63.78-53.44,2.85-80,1.95-10,12.95-15.5,21.61-18.41,10.93-3.67,22.53-4.4,24-.06,0,.63.06.95.09,1.58-6.65,40.89-13.24,91.83-.06,131.21,3.82,11.43,8.9,15.07,15.38,12.84,14.6-5,20.83-36,22.56-52.41a2,2,0,0,1,1.42-2.08,2.2,2.2,0,0,1,3,1.41c.1.29.14.44.24.73.34,24.37-3,57.57-28.68,68.62Z"/><path class="cls-6" d="M1314.09,786.69c-14.25,2.19-21.63-12.44-25.35-23.79-13.13-40-11.14-87.55-7-129.14,1.19-8.4,10.24-14.11,20.1-17.21,8.92-2.81,20-5.21,28.14.07-.07.34-.1.51-.17.85-6.94,39.3-13.08,77.4-10.86,117.45,6.71-42.54,15.75-126.09,64-143.15l2.38-.68c13.56-3.82,28.26,1.87,31.63,16.48,6.35,27.46-8.21,76.18-39.07,84.75l-1.93.57a2.18,2.18,0,0,1-2.58-1.62c.13-.68.2-1,.34-1.69,9.47-18.11,13.32-48.72,8.45-67.77-.83-3.23-2.39-5.28-4.47-5.07l-1.58.46c-22.3,9.79-29.46,55.11-34.27,75.23-6.72,28.13-12.43,57.31-14.26,86.25-.05,2.42-8.3,6.3-12,7.52Z"/><path class="cls-6" d="M1468.73,804.07a49.18,49.18,0,0,1-1.82-13.77c.11-22.78,12.16-39.39,31-51.11.21-10.65.61-21.34,1.43-32-3.49,11-11,20.14-22.55,23l-4.67.86c-23.52,3.67-37.9-17.61-43.34-37.56-10.47-38.45-4.07-114.8,44.44-126.24,12.64-3,25.65.14,33.08,11.35.47-3.26.79-8.84,1.35-11.74,1.53-5.88,11-10.57,21.1-13,12.08-2.89,24.87-2.7,25.9,1.76,0,.64,0,1-.06,1.58-11,51.39-13.07,105.64-16.53,157.9,22-14,39.7-35.3,41.92-62.24a2.5,2.5,0,0,1,1.91-2.4,2.1,2.1,0,0,1,2.38,1.41c.07.3.11.45.17.75.62,34.4-20.09,56.23-47.33,73.34q-1.85,29.18-3.36,58.35c-.74,18.06-10,37.87-28.54,42.61C1489.53,831,1472.67,819.7,1468.73,804.07Zm27.87-16.72c.49-11.89.65-24.12.84-36.18-13.24,9.14-20.36,23.84-21.13,39.71a32.63,32.63,0,0,0,1.14,10c1.72,6.26,5.33,9.23,9.42,8.11C1491.32,807.76,1496.05,800.81,1496.6,787.35Zm4.36-138.1c1.34-17.92,4.42-37.61.31-55.22-1.45-6.22-4.77-10.62-9.35-10.25l-2.09.13c-32.28,11.54-29.43,84.87-22.75,110.14,3.11,11.76,8.43,19.08,16.09,18.62l1.15-.3C1501.11,702.92,1499.71,665.83,1501,649.25Z"/><path class="cls-6" d="M1580.34,654.38c-8.57-39.54,4.17-113.28,52.29-123.55l.41-.09c17.94-4,35.8,4.44,39.55,23.25,2.11,10.64-.5,20.8-3.49,31-6.56,17.42-22.64,31.32-40.74,35.25-5.1,1.11-9.7.91-12.08-.53-1.82,13-2.36,26.58.36,39.4,2.75,13,12.19,27.54,27.78,25.27a41.06,41.06,0,0,0,6.65-1c25.45-5.37,37.19-32.51,43.34-55.07a2,2,0,0,1,1.68-1.88c1.19-.22,2.91.23,3.19,1.73l-.25.82c-5.31,32.81-20.47,60.91-55.16,68C1612.46,703.47,1587.05,685.35,1580.34,654.38Zm77.16-90c-1.11-5.93-4.84-9.55-10.08-8.49l-.4.08c-17.1,5.53-25.4,32-28.1,47.21a49.43,49.43,0,0,0,10.15-1C1646,598.68,1660.81,582.11,1657.5,564.36Z"/><path class="cls-6" d="M1718.92,682.77c-14.42.32-19.84-15.15-22-26.9-7.78-41.42.41-88.26,10-129,2.28-8.18,12-12.65,22.21-14.44,9.23-1.63,20.5-2.56,27.94,3.74l-.28.82c-12,38.06-23.14,75-26.19,115,12.26-41.37,32.21-123,82.37-133.58l2.46-.37c13.94-2,27.83,5.51,29.27,20.47,2.7,28.1-18.23,74.46-50,78.93l-2,.31a2.17,2.17,0,0,1-2.35-1.94l.55-1.64c11.78-16.69,19.64-46.55,17.3-66.09-.4-3.3-1.68-5.54-3.77-5.6l-1.63.24c-23.43,6.8-36.5,50.78-43.92,70.13-10.37,27-19.86,55.19-25.47,83.65-.37,2.39-9.07,5.16-12.94,5.89Z"/></g></g></g></svg>